<svg width="406" height="124" viewBox="0 0 406 124" fill="none" xmlns="http://www.w3.org/2000/svg">
<path d="M180.271 120.49H138.561L135.71 100.14L98.9902 99.8897L98.2402 100.23L85.1006 120.48H42.1904L55.6104 99.92H3.3916L3.36035 99.9297V99.92H3.3916L16.6797 95.7598C67.7597 82.1698 120.041 73.0705 172.601 66.9405L180.271 120.49Z" fill="white"/>
<path d="M234.2 120.49H195.13L210.52 62.6797L250.5 59.2803L234.2 120.49Z" fill="white"/>
<path d="M278.07 120.49V120.48H278.073L278.07 120.49Z" fill="white"/>
<path d="M309.53 2.83011C331.89 4.31005 358.1 -0.64951 379.35 7.2803C411.25 19.1803 407.59 61.0001 382.54 78.1201C365.98 89.4401 344.91 89.0998 325.58 88.9698L317.38 120.48H278.073L294.42 57.9004L350.25 57.8701C359.86 57.9201 372.39 48.6699 368.57 38.1299C364.96 28.1899 343.43 30.8104 334.87 30.6104C333.74 30.5804 332.69 30.1099 331.55 30.0899C321.73 29.9299 311.81 29.9199 302.05 30.5899L309.53 2.83011Z" fill="white"/>
<path d="M168.21 40.5801L88.2197 54.0303C87.78 53.6302 90.109 50.4614 90.5098 49.8604C101 34.1204 112.29 18.8803 122.74 3.11038L163.01 2.87015L168.21 40.5801Z" fill="white"/>
<path d="M292.62 30.5401C255.84 31.3101 219.18 34.8795 182.65 38.7295C184.92 26.6598 189.13 14.9099 191.76 2.87015H300.6L292.62 30.5401Z" fill="white"/>
</svg>
