<svg width="422" height="120" viewBox="0 0 422 120" fill="none" xmlns="http://www.w3.org/2000/svg">
<g clip-path="url(#clip0_74_26)">
<path d="M61.2144 95.7188H91.8057L44.9075 119.599C38.7041 110.516 26.7231 101.866 32.3109 89.4899L94.2677 0H127.676L61.2144 95.7188Z" fill="#FF4B44"/>
<path d="M319.71 41.3948C321.254 25.9813 335.079 22.1774 348.34 23.2155C357.858 23.9616 365.555 31.8454 366.788 41.1728H353.78C354.202 37.9494 352.767 35.4965 349.401 35.1728C347.104 34.9511 338.113 34.853 336.186 35.3562C333.563 36.0424 332.842 38.5867 332.666 40.9832C332.089 48.771 332.008 62.4917 332.666 70.2194C332.954 73.6118 334.417 75.2376 337.822 75.6176C340.579 75.9238 350.119 76.0677 352.144 74.5581C352.471 74.3119 353.775 72.5122 353.776 72.3205V62.2907H342.523V49.9743H358.172C361.021 53.7818 366.144 57.0932 366.749 62.1535C368.212 74.3927 362.048 85.6293 349.342 87.5859C336.637 89.5425 323.526 85.7947 320.266 72.426C318.944 66.9961 319.106 47.4546 319.71 41.3948Z" fill="#FF4B44"/>
<path d="M162.487 74.0763L163.015 74.6043H186.753V87.273H157.04C155.581 85.3833 149.479 79.6857 149.479 77.5954V22.8736H162.487V74.0763Z" fill="#FF4B44"/>
<path fill-rule="evenodd" clip-rule="evenodd" d="M209.108 22.8564C214.077 23.2294 219.616 22.4025 224.511 22.9198C228.432 23.3351 229.49 24.9431 230.609 28.4304C236.074 45.4907 238.845 64.3247 244.422 81.466V87.273H233.165L228.07 67.9246L208.38 77.423L205.739 87.273H193.782L193.789 83.2328L209.108 22.8564ZM211.366 65.1025H227.543L219.282 34.1312L211.366 65.1025Z" fill="#FF4B44"/>
<path d="M264.815 74.6043H288.729V87.273H258.841C258.795 87.273 258.791 86.6995 258.5 86.4003C257.35 85.2214 251.807 79.4535 251.807 78.2992V22.8736H264.815V74.6043Z" fill="#FF4B44"/>
<path d="M309.825 22.8736V87.273H296.814V22.8736H309.825Z" fill="#FF4B44"/>
<path fill-rule="evenodd" clip-rule="evenodd" d="M387.361 22.8702C392.39 23.6443 404.093 20.8154 407.173 25.5731L422 81.2937V87.273L410.764 87.2551L405.651 67.9246L385.958 77.4196L383.32 87.273H371.363L371.37 83.2328L386.551 23.4685L387.361 22.8702ZM388.947 65.1025H405.123L396.862 34.1312L388.947 65.1025Z" fill="#FF4B44"/>
<path d="M26.4031 57.7128H52.0745L12.8565 77.7642L11.981 77.2507C8.76672 71.7997 1.98694 66.042 0.541592 59.8415C0.348235 59.0075 0.611359 57.9517 0.03114 57.3605C0.0908885 56.5583 -0.0532115 55.6927 0.03114 54.8975C0.32654 52.1773 1.55394 49.4144 2.97468 47.1094L36.5977 0H67.1924L26.4031 57.7128Z" fill="#FF4B44"/>
<path d="M366.788 41.1762C366.788 41.1751 366.788 41.174 366.788 41.1728H366.792L366.788 41.1762Z" fill="#FF4B44"/>
</g>
<defs>
<clipPath id="clip0_74_26">
<rect width="422" height="120" fill="white"/>
</clipPath>
</defs>
</svg>
