<svg width="240" height="138" viewBox="0 0 240 138" fill="none" xmlns="http://www.w3.org/2000/svg">
<path fill-rule="evenodd" clip-rule="evenodd" d="M162.156 3.15703C175.166 3.98883 181.736 13.4857 182.49 25.8229C181.325 37.7484 185.973 58.4339 176.821 67.7256C176.096 68.4621 174.832 69.1223 174.156 69.7699C173.692 70.2148 174.627 70.3906 175.04 70.7361C179.929 74.8368 182.142 80.2552 182.503 86.6379C182.924 94.0592 182.922 104.269 182.503 111.691C181.646 126.805 173.2 134.197 158.44 134.76C151.345 135.031 144.155 134.541 137.054 134.752V3.16523H137.052L162.156 3.15703ZM154.815 117.786H159.669C162.077 117.786 164.409 114.321 164.498 112.072C164.461 103.316 165.332 93.6932 164.737 84.985C164.624 83.3091 164.101 80.8035 162.961 79.5229C162.23 78.7015 159.9 77.6484 158.842 77.6484H154.815V117.786ZM154.815 62.9584H159.462C159.83 62.9583 161.718 62.156 162.112 61.8891C163.556 60.9166 164.108 59.2466 164.469 57.6287C164.347 47.7681 165.522 36.6515 164.702 26.8799C164.504 24.511 163.769 21.7509 161.491 20.5799C161.216 20.4392 159.854 19.9219 159.669 19.9219H154.815V62.9584Z" fill="#1D4289"/>
<path d="M117.533 105.168C117.528 101.222 116.924 97.2209 116.606 93.2672C114.195 63.2589 112.292 33.2976 112.679 3.16523H128.377V134.752H106.276L92.3337 34.4051C91.9392 34.4051 92.4265 38.8035 92.4451 39.2607C93.137 55.7959 93.8681 72.3974 94.0974 88.916C94.3102 104.187 93.9198 119.481 94.0892 134.752H78.3914V3.16523H102.558L117.533 105.168Z" fill="#1D4289"/>
<path fill-rule="evenodd" clip-rule="evenodd" d="M235.369 134.752H216.573L215.127 109.924H204.387L202.941 134.752H184.971L197.777 3.16523H222.976L235.369 134.752ZM209.652 14.7498C209.243 14.7539 209.16 14.5842 209.135 15.0557C208.154 33.6639 207.644 52.3655 206.667 70.9324C206.289 78.1014 205.599 85.2765 205.215 92.4434C205.172 93.2336 205.24 94.0323 205.213 94.8205H214.301L209.652 14.7498Z" fill="#1D4289"/>
<path d="M33.9836 3.16552L31.5277 4.74C29.7493 6.56483 30.1376 10.9531 29.8423 11.2221C29.7369 11.3172 29.1235 11.129 28.8137 11.3276C28.1238 11.7724 28.7145 14.2531 28.9459 14.9379C29.0058 15.1138 29.3259 15.2731 29.3982 15.5172C29.6048 16.2 29.0987 19.4566 28.7042 20.1145C28.3097 20.7724 27.2955 21.0103 26.5995 21.1097C24.4906 21.4097 21.5927 21.6 19.5685 22.1359C16.1253 23.0483 13.9297 27.2979 12.4674 30.3331C10.6084 34.1897 8.17319 39.4676 6.77279 43.4565C6.46916 44.3193 5.40337 47.4621 5.48599 48.1428C5.53762 48.5834 6.62407 51.54 6.92564 51.6807C7.17969 51.7986 8.68957 51.9766 9.08614 51.9972C9.69959 52.0283 11.2942 51.6559 11.4387 52.1234C11.9407 53.7476 9.65828 54.5814 9.09234 56.3297C6.50221 64.3221 9.26171 67.1545 12.3352 73.7793C12.6966 74.5593 13.4505 77.1414 13.7273 77.5076C14.0578 77.9483 16.3278 77.88 16.7925 78.3145C16.9681 78.48 18.2549 81.1717 18.6143 81.7634C23.4764 89.7352 29.4746 97.0448 36.898 102.759C39.1267 104.474 42.7537 105.904 42.8611 109.217C42.8776 109.736 42.5017 110.026 42.4542 110.454C42.2745 112.051 45.571 115.968 45.918 118.142C46.0605 119.032 45.6557 119.673 45.759 120.35C45.8519 120.968 46.486 121.206 46.5976 122.216C46.9322 125.263 44.815 130.984 46.7008 133.492L48.031 134.539H14.0516C9.807 134.539 4.59369 128.793 4.65772 124.5L4.64533 13.8041C4.32725 9.3869 9.69546 3.15931 14.0537 3.15931H33.9857L33.9836 3.16552Z" fill="#1E428A"/>
<path d="M36.3689 42.484C36.7719 41.8798 40.4363 39.4323 40.7998 39.784C41.7024 43.6322 41.9645 48.2358 43.2203 51.9475C44.2778 55.0694 46.7706 58.0199 47.4027 61.2949C39.8039 63.1736 37.6621 73.1379 43.6891 78.1676H43.6932C48.0617 81.8131 54.6489 80.8592 57.7885 76.142L58.9803 74.1287V124.715C58.5589 128.894 54.8139 133.846 50.466 134.4C50.3049 134.421 49.8691 134.561 49.8959 134.232C49.9062 134.102 50.5422 133.817 50.718 133.612C53.8968 129.888 51.0941 126.983 50.5592 123.422C50.4394 122.613 50.778 122.026 50.6851 121.457C50.6067 120.979 50.0032 119.967 49.8215 119.199C49.5901 118.225 49.169 116.305 49.1441 115.37C49.0698 112.631 50.908 110.371 49.7224 107.712C49.2205 106.591 47.9296 105.333 47.5516 104.301C46.2916 100.86 46.5086 95.5842 45.2342 91.7256C44.5897 89.7766 43.3522 88.3819 42.4785 86.6232C39.9629 81.5647 40.1611 75.3394 38.8826 69.743C38.7112 68.9961 37.9551 67.0738 37.9469 66.5379C37.9407 66.0828 38.608 66.1055 38.4842 64.9822C38.3127 63.4119 35.2494 53.2819 34.4025 52.357C34.0988 52.0261 33.4216 51.8378 33.2605 51.5772C32.9074 51.004 33.7931 48.9355 34.0369 48.2174C34.5078 46.8353 35.6377 43.5826 36.3689 42.484Z" fill="#C8112F"/>
<path d="M49.5777 3.16523C53.7789 3.16523 58.9762 9.0869 58.9762 13.2V66.8936C58.0446 66.3598 57.689 64.3676 57.216 63.7945C56.9289 63.447 56.2515 63.3518 55.8859 63.058C55.5163 62.7601 55.4108 62.2865 55.0433 62.0402C54.5869 61.734 53.7378 61.7319 53.3453 61.5147C52.9012 61.2684 52.2176 56.3133 51.8933 55.2621C50.4516 50.5759 48.4131 47.5137 47.8451 42.1447C47.2978 36.9662 48.4128 32.1416 43.7904 28.2064C42.4478 27.0644 40.7994 25.9903 39.3391 24.8027C38.6037 24.2048 36.357 23.3587 36.1316 22.6201C35.797 21.5318 36.7571 21.5811 37.29 21.0639C38.2236 20.1556 38.7341 18.2729 39.3414 17.584C39.5273 17.3731 39.8783 17.4392 40.0621 17.2283C40.6157 16.5994 41.6506 15.0393 41.6465 14.2365C41.6444 13.8022 41.4047 13.3843 41.4273 13.0037C41.4748 12.2134 42.3797 10.7113 42.4521 9.46992C42.6112 6.69753 41.19 6.2337 39.6637 4.40684L37.7014 3.16523H49.5777Z" fill="#C8112F"/>
</svg>
