<svg width="240" height="271" viewBox="0 0 240 271" fill="none" xmlns="http://www.w3.org/2000/svg">
<path d="M195.207 126.096C197.642 135.065 202.414 143.721 204.186 152.838C208.734 176.246 196.469 197.613 176.048 208.696C161.262 216.718 144.887 216.552 129.184 220.883C125.679 221.848 122.558 222.809 120.011 225.557C118.006 223.063 115.244 222.125 112.271 221.24C100.789 217.821 88.3762 217.151 76.8136 213.969L76.8184 213.964L195.207 126.096Z" fill="#010101"/>
<path fill-rule="evenodd" clip-rule="evenodd" d="M181.518 55.1863C185.032 60.9289 190.735 65.2592 196.362 68.8477C193.573 80.0648 191.034 91.4563 191.397 103.129C191.46 105.167 192.847 113.739 192.212 114.838L66.4999 208.839C64.8884 209.558 62.2024 207.453 60.7386 206.573C48.1912 199.016 38.0655 185.408 35.7646 170.79C35.496 169.078 34.6457 165.061 35.6037 163.751L179.817 55.8611L181.518 55.1863ZM100.095 125.635C96.1429 127.128 93.2286 130.976 89.352 132.772V164.001L75.6858 143.48L61.1552 154.415C60.9896 155.376 61.3432 154.934 61.7729 155.117C63.0443 155.667 65.6269 156.632 65.6269 158.424V199.244C69.5795 197.751 72.4938 193.904 76.3703 192.107V164.448L88.7387 182.257L100.095 174.043V125.635ZM143.069 93.0697C139.645 95.6125 135.831 97.9408 132.868 100.971L132.55 118.945L120.692 127.427V110.03L104.581 121.854C106.206 122.011 109.501 124.236 109.501 125.867V166.687L119.564 159.541L120.598 158.343L120.79 140.463C124.367 138.707 127.863 134.546 131.198 132.776C131.74 132.49 132.044 132.173 132.774 132.343V149.294L143.069 142.157V93.0697ZM147.551 89.7315C147.246 90.4778 149.247 90.728 150.013 91.2821C150.46 91.6086 152.022 93.3691 152.022 93.74V134.56C152.783 134.707 153.204 134.18 153.764 133.84C161.329 129.278 174.548 119.035 181.361 113.14C181.674 112.872 182.05 112.72 182.462 112.697V100.207L163.213 114.038V78.3487L147.551 89.7315Z" fill="#010101"/>
<path d="M120.437 46.6503C132.026 54.7615 146.234 59.6105 160.523 57.385H160.528L36.9781 149.723C39.2387 140.758 43.4913 132.455 45.8011 123.499C50.4969 105.301 49.2614 86.6388 43.6569 68.8032C50.8236 64.8392 57.3813 58.949 61.2042 51.6334C62.0905 51.0748 68.4161 54.4709 69.9918 55.034C84.5447 60.2001 99.6616 58.0685 113.082 50.9181C114.541 50.1404 119.38 46.5476 120.437 46.6503Z" fill="#010101"/>
<path fill-rule="evenodd" clip-rule="evenodd" d="M120.025 24.377C129.663 34.8254 142.725 42.8116 157.573 41.2653C165.586 40.4296 175.712 33.9002 181.791 28.8145C182.422 28.2872 185.027 25.1947 185.605 25.7042L185.591 25.7085C188.707 42.2213 201.16 56.6383 218.274 59.1678C209.303 77.665 205.193 97.6996 209.992 118.056C212.369 128.147 217.549 137.371 219.849 147.493C227.719 182.15 206.828 215.904 174.074 227.689C161.705 232.14 148.584 233.383 135.907 236.497C133.893 236.993 130.723 237.605 128.951 238.486C125.799 240.045 123.458 245.377 120.02 247.004C119.282 247.004 113.068 239.317 110.852 238.28C104.787 235.442 91.5723 234.097 84.4279 232.493C52.1529 225.235 25.5406 208.445 19.6585 173.467C15.0254 145.942 29.3187 132.857 32.0046 108.407C33.8668 91.4566 29.3947 74.1973 21.7669 59.1726C34.1397 57.5951 44.9413 49.0011 50.4966 38.0567C52.4886 34.1285 53.5139 29.7934 55.1164 25.7177C61.4327 31.5854 69.4456 37.6184 77.83 40.0987C93.869 44.8447 109.662 36.0991 120.025 24.377ZM120.405 35.1025C105.284 48.2815 86.0218 53.89 67.2745 44.3578C64.0202 42.7043 61.267 40.2732 58.0261 38.6376C54.0107 50.2614 44.601 60.7323 32.5012 64.0706C40.3081 82.9878 42.3631 103.174 36.8526 123.048C33.7728 134.149 28.1011 144.034 26.691 155.747C23.0472 186.06 43.7192 212.298 71.7999 221.415C84.2355 225.45 97.9605 226.178 110.289 229.901C114.434 231.152 117.232 232.421 120.079 235.786C123.149 233.208 124.448 231.662 128.396 230.339C138.938 226.809 151.691 225.901 162.69 223.028C193.564 214.961 216.335 190.239 213.793 157.088C212.862 144.968 206.277 133.746 203.183 122.158C198.895 106.092 199.522 90.2183 204.178 74.3266C204.625 72.7977 207.839 64.5939 207.494 64.1064L207.49 64.1108C195.005 60.3613 186.795 50.2032 181.782 38.6376C170.855 47.1063 158.683 51.03 144.847 48.2459C135.769 46.4181 127.008 41.4887 120.405 35.1025Z" fill="#010101"/>
<path fill-rule="evenodd" clip-rule="evenodd" d="M190.515 6.96585C194.096 15.3944 196.402 24.9847 200.144 33.2792C201.174 35.5583 202.557 38.0655 204.16 39.9826C211.112 48.3128 224.277 47.7674 233.462 52.299C228.216 66.269 220.149 79.3233 219.142 94.6072C217.835 114.512 224.505 123.012 229.577 140.459C240.566 178.262 222.325 214.97 188.577 233.226C171.611 242.401 152.98 243.808 134.591 248.572L120.396 263.454C119.107 263.677 107.737 249.909 105.57 248.434C90.064 244.336 73.555 243.035 58.747 236.654C21.9238 220.793 -0.140905 182.959 9.8908 143.033C12.3797 133.13 17.6711 124.156 19.7482 114.042C23.5978 95.3086 19.7705 82.4646 12.4381 65.554C10.5983 61.3085 8.68204 57.0185 6.53784 52.9204V52.0266C13.5166 49.5776 21.6684 48.3039 28.4637 45.551C34.4352 43.1288 37.2377 39.4062 39.8699 33.7217C43.7285 25.3915 46.3156 15.6222 49.5073 6.97022H50.4026L50.4074 6.96585C55.9895 11.9085 61.7282 17.0702 67.6505 21.6777C75.7931 28.0058 81.4963 31.9876 92.486 29.4984C104.357 26.808 111.56 16.5158 120.074 8.78007C126.941 13.9909 131.905 21.9994 139.632 26.2226C150.12 31.9519 159.028 31.639 168.728 24.7344C176.047 19.5236 182.972 12.5521 190.068 6.96585H190.515ZM189.172 12.7664C188.483 12.5788 188.425 12.9587 188.053 13.2089C176.75 20.8553 168.16 34.3471 152.667 33.7527C138.477 33.2075 129.618 22.8977 120.396 13.6916C112.948 19.4208 107.791 27.1788 98.9095 30.9954C77.3108 40.2774 66.7956 23.9883 51.3027 12.7712C46.1145 24.3324 44.0014 42.445 31.1452 48.2324C28.2669 49.5283 12.2689 53.4295 11.6412 54.2341C11.2607 54.7212 11.5295 55.1235 11.6503 55.6105C12.5456 59.2125 16.3637 65.554 17.9305 69.4465C24.39 85.4722 26.9191 100.269 22.6128 117.358C20.5313 125.622 16.3774 133.192 14.0228 141.361C2.88986 179.982 23.3159 217.294 59.1946 233.096C74.4995 239.84 91.3578 240.895 107.357 245.324C111.981 249.453 115.558 254.713 120.41 258.57C124.6 254.118 128.503 249.359 133.092 245.306C144.874 241.918 157.238 240.743 169.024 237.396C208.596 226.156 235.633 190.14 227.983 148.302C225.248 133.335 216.6 121.273 215.583 105.337C214.37 86.2948 221.224 70.9974 229.008 54.2655C213.802 49.5865 203.501 49.7741 196.558 33.7304C193.703 27.1298 191.563 19.5863 189.164 12.7712L189.172 12.7664Z" fill="#010101"/>
<path d="M100.096 174.039L88.7391 182.253L76.3707 164.444V192.102C72.4942 193.899 69.5799 197.751 65.6273 199.239V158.42C65.6273 156.628 63.0397 155.667 61.7729 155.113C61.3476 154.925 60.9896 155.372 61.1552 154.411L75.6857 143.475L89.3524 163.997V132.768C93.229 130.971 96.1432 127.119 100.096 125.631V174.039Z" fill="#CCCFD0"/>
<path d="M143.07 142.143L132.774 149.281V132.33C132.044 132.16 131.74 132.477 131.198 132.763C127.859 134.538 124.367 138.693 120.79 140.45L120.598 158.33L119.564 159.528L109.501 166.674V125.854C109.501 124.223 106.206 121.997 104.581 121.841L120.692 110.016V127.414L132.55 118.932L132.868 100.958C135.831 97.9321 139.645 95.6035 143.07 93.0562V142.143Z" fill="#CCCFD0"/>
<path d="M163.214 114.038L182.462 100.207V112.697C182.051 112.72 181.675 112.867 181.361 113.14C174.548 119.035 161.333 129.278 153.764 133.84C153.204 134.18 152.779 134.703 152.023 134.56V93.74C152.023 93.3691 150.46 91.6084 150.013 91.2821C149.247 90.728 147.246 90.4733 147.551 89.7315L163.214 78.3487V114.038Z" fill="#CCCFD0"/>
<path fill-rule="evenodd" clip-rule="evenodd" d="M120.401 35.1069C127.008 41.4931 135.764 46.4225 144.842 48.2503C158.679 51.0344 170.85 47.1106 181.777 38.642C186.795 50.2076 195.001 60.3657 207.485 64.1151L207.49 64.1108C207.835 64.5979 204.621 72.8075 204.173 74.3314C199.518 90.223 198.891 106.097 203.179 122.163C206.272 133.751 212.857 144.972 213.788 157.092C216.335 190.248 193.559 214.965 162.685 223.032C151.687 225.905 138.929 226.813 128.391 230.343C124.443 231.666 123.145 233.213 120.074 235.791C117.223 232.426 114.429 231.157 110.284 229.906C97.956 226.183 84.2355 225.454 71.7955 221.419C43.7104 212.302 23.0383 186.065 26.6866 155.752C28.0967 144.034 33.7684 134.153 36.8482 123.052C42.3587 103.178 40.3037 82.9922 32.4968 64.075C44.5921 60.7367 54.0063 50.2658 58.0217 38.642C61.2626 40.2776 64.0202 42.7086 67.2701 44.3622C86.0174 53.8944 105.275 48.2859 120.401 35.1069ZM76.8228 213.96L76.8184 213.964C88.3855 217.146 100.799 217.812 112.276 221.236C115.249 222.12 118.006 223.059 120.016 225.553C122.563 222.804 125.683 221.848 129.188 220.878C144.887 216.552 161.266 216.713 176.052 208.691C196.478 197.608 208.744 176.242 204.191 152.833C202.418 143.717 197.646 135.065 195.211 126.091L76.8228 213.96ZM181.518 55.1859L179.817 55.8611L35.6036 163.747C34.6503 165.056 35.4964 169.074 35.7649 170.785C38.0704 185.399 48.1916 199.007 60.739 206.568C62.1983 207.449 64.8839 209.553 66.4998 208.834L192.212 114.834C192.847 113.73 191.46 105.163 191.397 103.125C191.035 91.4519 193.573 80.0605 196.362 68.8434C190.735 65.2548 185.032 60.9242 181.518 55.1815V55.1859ZM120.441 46.6503C119.38 46.5524 114.546 50.1405 113.086 50.9181C99.6615 58.0685 84.5491 60.2002 69.9962 55.034C68.4205 54.4754 62.0954 51.0749 61.209 51.6334C57.3861 58.9491 50.828 64.8392 43.6612 68.8032C49.2702 86.6389 50.5057 105.297 45.8055 123.499C43.4956 132.455 39.243 140.758 36.9824 149.723L160.52 57.3859C146.233 59.6084 132.028 54.76 120.441 46.6503Z" fill="#CCCFD0"/>
<path fill-rule="evenodd" clip-rule="evenodd" d="M188.058 13.2045C188.429 12.9543 188.483 12.5699 189.177 12.762L189.172 12.7664C191.572 19.5816 193.712 27.1254 196.568 33.7261C203.511 49.7697 213.811 49.5821 229.017 54.2611C221.233 70.993 214.379 86.2904 215.592 105.333C216.609 121.265 225.253 133.326 227.992 148.297C235.642 190.136 208.605 226.147 169.033 237.391C157.247 240.738 144.882 241.913 133.1 245.301C128.512 249.354 124.609 254.114 120.419 258.565C115.566 254.708 111.994 249.448 107.365 245.319C91.3665 240.89 74.5082 239.836 59.2033 233.092C23.3246 217.29 2.89418 179.978 14.0271 141.357C16.3817 133.183 20.536 125.613 22.6176 117.354C26.9239 100.265 24.3947 85.4679 17.9352 69.4421C16.3685 65.5541 12.55 59.2127 11.6547 55.6062C11.5338 55.1191 11.2651 54.7168 11.6455 54.2297C12.2722 53.4253 28.271 49.524 31.1495 48.228C44.0058 42.4407 46.1188 24.3321 51.307 12.7664C66.8 23.9835 77.315 40.273 98.9138 30.991C107.795 27.1745 112.956 19.4165 120.401 13.6872C129.622 22.8933 138.477 33.203 152.671 33.7483C168.164 34.3472 176.755 20.8554 188.058 13.2045ZM120.011 24.3814C109.648 36.1035 93.8555 44.8492 77.8164 40.1031C69.4321 37.6228 61.4191 31.5898 55.1028 25.7221C53.5003 29.7978 52.4755 34.1328 50.4834 38.0611C44.9326 49.0056 34.1262 57.5995 21.7533 59.177C29.3812 74.2017 33.8532 91.4609 31.991 108.412C29.3051 132.862 15.0118 145.947 19.6449 173.471C25.5315 208.445 52.1441 225.24 84.4148 232.498C91.5592 234.106 104.774 235.447 110.839 238.285C113.06 239.322 119.268 247.012 120.007 247.008C123.445 245.382 125.786 240.05 128.937 238.491C130.71 237.61 133.879 236.998 135.894 236.502C148.571 233.391 161.692 232.144 174.06 227.693C206.819 215.909 227.705 182.154 219.836 147.497C217.539 137.375 212.36 128.151 209.979 118.06C205.18 97.7041 209.294 77.6697 218.26 59.1726C201.147 56.6432 188.698 42.2261 185.578 25.7133L185.591 25.7085C185.013 25.1999 182.409 28.2868 181.777 28.8189C175.703 33.9046 165.577 40.434 157.56 41.2697C142.711 42.8158 129.649 34.8298 120.011 24.3814Z" fill="#CCCFD0"/>
</svg>
