<svg width="400" height="170" viewBox="0 0 400 170" fill="none" xmlns="http://www.w3.org/2000/svg">
<path d="M157.903 85V29.7981H175.516C186.952 29.7981 195.532 36.566 195.532 48.2255C195.532 59.8849 187.097 66.9094 175.516 66.9094H168.71V85H157.903ZM168.661 56.6934H174.935C180.387 56.6934 184.339 53.7104 184.339 48.3057C184.339 42.9009 180.387 40.0141 174.935 40.0141H168.661V56.6132V56.6934ZM339.871 145.462C331.806 145.462 322.016 141.132 322.016 127.58V108.223H332.032V126.923C332.032 133.161 334.903 135.856 339.79 135.856C344.29 135.856 347.565 132.744 347.565 126.923V108.223H357.565V127.596C357.565 141.148 347.565 145.478 339.726 145.478M252.984 145.478C243.306 145.478 234.871 136.674 234.871 126.377C234.843 121.528 236.721 116.859 240.104 113.366C243.488 109.873 248.109 107.832 252.984 107.677C258.435 107.677 262.113 109.57 264.274 112.954L265.371 108.142H274.194V144.516H265.532L264.516 139.897C263.241 141.678 261.543 143.118 259.574 144.089C257.604 145.06 255.423 145.532 253.226 145.462M255.274 116.755C253.355 116.701 251.463 117.216 249.839 118.234C248.215 119.252 246.932 120.728 246.154 122.473C245.376 124.219 245.137 126.155 245.469 128.035C245.8 129.916 246.687 131.655 248.016 133.033C249.345 134.411 251.056 135.365 252.931 135.774C254.807 136.182 256.762 136.026 258.549 135.326C260.335 134.626 261.871 133.414 262.963 131.843C264.054 130.273 264.651 128.415 264.677 126.506V126.377C264.723 125.158 264.526 123.941 264.098 122.797C263.67 121.653 263.019 120.605 262.184 119.711C261.348 118.817 260.343 118.096 259.226 117.589C258.11 117.082 256.904 116.798 255.677 116.755H255.274ZM321.403 48.6264H331.403V85H321.403V48.6424V48.6264ZM326.581 43.8151C325.352 43.8055 324.154 43.4336 323.137 42.7465C322.121 42.0594 321.333 41.088 320.872 39.9552C320.412 38.8224 320.3 37.5792 320.55 36.383C320.8 35.1867 321.402 34.0912 322.279 33.2351C323.155 32.3791 324.268 31.8009 325.475 31.5738C326.683 31.3467 327.931 31.4809 329.061 31.9595C330.192 32.438 331.155 33.2394 331.827 34.2621C332.499 35.2848 332.851 36.4829 332.839 37.7047C332.839 39.3225 332.194 40.8743 331.045 42.0197C329.896 43.1652 328.337 43.8108 326.71 43.8151H326.581ZM306.177 63.5094C306.177 59.5802 304 57.0943 300.597 57.0943C296.645 57.0943 294.597 59.5321 294.597 63.6057V84.9038H284.597V63.5094C284.597 59.5802 282.419 57.0943 279.016 57.0943C275.048 57.0943 273.016 59.5321 273.016 63.6057V84.9038H263.016V48.6424H271.871L272.952 53.4538C273.719 51.7819 274.951 50.3633 276.503 49.3658C278.055 48.3682 279.862 47.8334 281.71 47.8245C283.734 47.7551 285.741 48.211 287.534 49.1475C289.327 50.0839 290.844 51.4686 291.935 53.1651L292.29 53.5179L292.548 53.1009C293.69 51.3688 295.267 49.9634 297.122 49.0238C298.978 48.0842 301.049 47.6432 303.129 47.7443C310.887 47.7443 316.21 53.566 316.21 61.8255V85H306.194V63.5094H306.177ZM376.597 84.9038V48.6424H385.323L386.403 53.9189C387.482 51.7679 389.284 50.0606 391.497 49.0937C393.71 48.1269 396.193 47.9615 398.516 48.6264V58.2491C397.357 57.9883 396.172 57.8539 394.984 57.8481C390.145 57.8481 386.645 60.8311 386.645 66.6528V84.8717H376.629L376.597 84.9038ZM198.984 84.9038V48.6424H207.71L208.79 53.9189C209.869 51.7679 211.671 50.0606 213.884 49.0937C216.097 48.1269 218.58 47.9615 220.903 48.6264V58.2491C219.739 57.9874 218.549 57.853 217.355 57.8481C212.516 57.8481 209.016 60.8311 209.016 66.6528V84.8717H199.016L198.984 84.9038ZM158.065 144.5V90.7415H168.823V134.364H192.097V144.516H158.065V144.5ZM213.952 145.478C202.661 145.478 194.339 137.764 194.339 126.522C194.217 121.539 196.091 116.712 199.549 113.103C203.006 109.494 207.763 107.398 212.774 107.276H213.694C222.548 107.276 231.677 113.916 231.677 126.233C231.707 127.415 231.615 128.598 231.403 129.761H204.629C205.141 131.757 206.328 133.517 207.99 134.746C209.652 135.975 211.689 136.599 213.758 136.513C215.596 136.549 217.42 136.194 219.108 135.472C220.797 134.75 222.31 133.678 223.548 132.327L229.677 138.566C227.687 140.768 225.248 142.523 222.523 143.715C219.798 144.907 216.848 145.508 213.871 145.478M213.323 116.081C211.364 115.978 209.432 116.565 207.866 117.738C206.3 118.912 205.199 120.596 204.758 122.496H221.645C221.211 120.635 220.144 118.981 218.625 117.812C217.105 116.643 215.227 116.032 213.306 116.081M380.855 145.478C369.565 145.478 361.242 137.764 361.242 126.522C361.121 121.539 362.995 116.712 366.452 113.103C369.909 109.494 374.666 107.398 379.677 107.276H380.645C389.516 107.276 398.629 113.916 398.629 126.233C398.664 127.415 398.578 128.597 398.371 129.761H371.694C372.206 131.757 373.393 133.517 375.055 134.746C376.717 135.975 378.753 136.599 380.823 136.513C382.663 136.551 384.49 136.198 386.181 135.476C387.873 134.754 389.389 133.68 390.629 132.327L396.774 138.566C394.792 140.773 392.357 142.532 389.633 143.725C386.909 144.917 383.96 145.515 380.984 145.478M380.371 116.065C378.408 115.958 376.47 116.542 374.897 117.716C373.325 118.889 372.219 120.576 371.774 122.48H388.71C388.273 120.621 387.205 118.968 385.686 117.8C384.168 116.631 382.291 116.019 380.371 116.065ZM354.839 85.8821C343.548 85.8821 335.226 78.1679 335.226 66.9255C335.164 64.4538 335.593 61.9942 336.489 59.6878C337.385 57.3815 338.731 55.2738 340.448 53.4857C342.165 51.6976 344.221 50.2643 346.497 49.2681C348.772 48.2718 351.224 47.7322 353.71 47.6802H354.565C363.419 47.6802 372.548 54.3198 372.548 66.6368C372.578 67.8138 372.486 68.9907 372.274 70.1491H345.645C346.141 72.1723 347.33 73.9609 349.007 75.2076C350.685 76.4542 352.747 77.0813 354.839 76.9811C356.659 76.999 358.462 76.6338 360.129 75.9096C361.797 75.1855 363.292 74.1186 364.516 72.7792L370.645 79.0179C368.662 81.2289 366.225 82.9904 363.498 84.1829C360.771 85.3755 357.818 85.9714 354.839 85.9302M354.29 56.5491C352.33 56.4456 350.396 57.0318 348.827 58.2049C347.258 59.3779 346.154 61.0629 345.71 62.9641H362.613C362.179 61.1034 361.112 59.4488 359.593 58.2799C358.073 57.111 356.195 56.4996 354.274 56.5491M241.129 85.8821C229.839 85.8821 221.516 78.1679 221.516 66.9255C221.454 64.4538 221.883 61.9942 222.78 59.6878C223.676 57.3815 225.021 55.2738 226.738 53.4857C228.456 51.6976 230.511 50.2643 232.787 49.2681C235.063 48.2718 237.514 47.7322 240 47.6802H240.871C249.726 47.6802 258.839 54.3198 258.839 66.6368C258.874 67.8132 258.787 68.9902 258.581 70.1491H231.887C232.384 72.1596 233.564 73.9378 235.227 75.1828C236.891 76.4278 238.936 77.0631 241.016 76.9811C242.858 77.0173 244.686 76.661 246.377 75.9362C248.068 75.2114 249.584 74.135 250.823 72.7792L256.935 79.0179C254.957 81.2293 252.522 82.9913 249.797 84.184C247.073 85.3767 244.122 85.9723 241.145 85.9302M240.565 56.4849C238.604 56.3783 236.668 56.9633 235.098 58.1368C233.528 59.3104 232.425 60.9972 231.984 62.9H248.903C248.469 61.0393 247.402 59.3846 245.883 58.2158C244.364 57.0469 242.485 56.4355 240.565 56.4849ZM298.177 116.755C296.257 116.726 294.372 117.266 292.762 118.306C291.152 119.346 289.889 120.838 289.134 122.594C288.379 124.349 288.167 126.289 288.523 128.165C288.88 130.041 289.79 131.769 291.138 133.129C292.485 134.489 294.209 135.42 296.09 135.803C297.971 136.186 299.925 136.004 301.701 135.28C303.478 134.557 304.998 133.324 306.068 131.738C307.138 130.153 307.709 128.287 307.71 126.377C307.744 125.147 307.534 123.923 307.092 122.773C306.65 121.624 305.985 120.572 305.134 119.678C304.284 118.785 303.264 118.067 302.134 117.565C301.004 117.063 299.786 116.788 298.548 116.755H298.177ZM307.161 112.825L308.242 108.207H317.097V142.896C317.097 149.648 315.21 154.395 310.645 157.924C306.722 160.867 301.931 162.44 297.016 162.398C293.806 162.487 290.612 161.928 287.626 160.754C284.64 159.579 281.925 157.814 279.645 155.566L285.226 147.852C288.176 150.847 292.188 152.574 296.403 152.663C303.887 152.663 307.161 149.007 307.161 143.586V141.132C305.821 142.55 304.194 143.669 302.386 144.415C300.579 145.162 298.633 145.519 296.677 145.462C291.638 145.428 286.819 143.405 283.28 139.838C279.741 136.271 277.772 131.452 277.806 126.442C277.841 121.431 279.875 116.639 283.463 113.12C287.05 109.601 291.896 107.643 296.935 107.677C298.928 107.658 300.895 108.116 302.672 109.012C304.449 109.908 305.983 111.216 307.145 112.825M29.8387 15.5245C34.4393 17.6553 38.7349 20.3842 42.6129 23.6396C42.2258 21.7632 40.7903 12.8302 39.9839 7.21698L57.2742 19.117C58.5968 15.0755 63.1613 1.89245 63.1613 1.89245C63.1613 1.89245 71.4032 15.1557 72.8387 17.3208C74.4516 15.5406 84.4355 4.61887 86.9677 1.87642C87.4032 8.13113 87.9839 17.1283 88.1129 18.4594C91.1357 14.3997 94.7008 10.7685 98.7097 7.66604C95.9516 13.0547 94.6613 20.4962 94.0645 26.4141C84.8522 23.845 75.2205 23.109 65.7216 24.2484C56.2227 25.3878 47.0433 28.3801 38.7097 33.0538C36.8226 27.4085 33.871 20.2396 29.8387 15.5245ZM105.645 90.2604V81.0226C102.542 79.8797 99.6409 78.2559 97.0484 76.2113C88.1129 77.6226 77.4194 86.6038 77.4194 86.6038L85.0484 100.877C91.9355 101.775 102.29 93.0189 105.613 90.2604H105.645ZM114.516 107.036C113.876 104.311 112.594 101.777 110.774 99.6425L103.823 99.8028C103.823 99.8028 94.4516 107.822 88.8226 107.998C88.8226 107.998 91.9677 113.82 93.5484 116.867C96.7742 116.193 102.242 113.659 104.468 111.142C105.405 114.49 105.803 117.965 105.645 121.438C108.806 119.625 113.065 114.75 114.516 107.036ZM117.419 76.6604C115.41 78.3723 113.251 79.902 110.968 81.2311V90.517C113.764 93.1803 116.058 96.3197 117.742 99.7868C121.274 93.5 120.613 84.2302 117.371 76.6443L117.419 76.6604ZM118.194 68.3689L118.806 64.1509C118.936 60.4154 117.614 56.7738 115.113 53.983C111.065 49.4443 100.855 42.1632 95.9839 40.4151C95.7624 42.8495 95.0141 45.2075 93.7903 47.3274C84.1129 40.367 79.2742 38.6189 79.2742 38.6189C68.6774 40.0943 61.8226 44.2321 58.0645 47.4396L61.2903 50.1821C57.1345 51.6328 53.4696 54.2104 50.7097 57.6236C50.7097 57.7198 56.4516 58.5217 56.4516 58.5217C56.4516 58.5217 55.8548 65.1613 64.2419 69.3311C71.3871 72.9075 81.6935 68.4811 91.4032 72.3462C88.166 68.4838 84.5635 64.9393 80.6452 61.7613C79.2226 61.4622 77.776 61.2905 76.3226 61.2481C73.2241 61.564 70.0934 61.2363 67.129 60.2858C65.2708 59.4874 63.4847 58.5324 61.7903 57.4311C64.8338 54.5446 68.6555 52.5999 72.7903 51.834C76.5644 52.9717 80.1349 54.6927 83.371 56.934C85.0345 55.1868 87.3095 54.1418 89.7258 54.0151C89.7258 54.0151 86.5 56.9981 87.4839 60.6387C90.8997 63.8102 94.1307 67.1729 97.1613 70.7104C102.323 67.8877 113.532 68.5453 115.839 71.1915C112.738 67.6189 109.255 64.3923 105.452 61.5689C104.228 59.1265 102.7 56.8473 100.903 54.7849C103.274 55.609 105.464 56.8775 107.355 58.5217C108.516 56.9979 110.176 55.9257 112.048 55.4906C112.821 56.1527 113.451 56.9623 113.903 57.8715C114.355 58.7806 114.618 59.7707 114.677 60.783C114.098 61.4362 113.404 61.9795 112.629 62.3868L118.097 68.2726L118.742 64.0868M123.581 71.7368C127.834 79.6329 130.431 88.3052 131.216 97.2285C132.001 106.152 130.956 115.141 128.145 123.651L121.71 116.434C120.565 134.3 115.258 148.157 99.8387 159.88C99.8387 159.88 98.371 154.283 97.5161 150.771C72.0806 169.31 50.2097 160.826 44.1452 157.779C48.9032 136.08 45.2258 123.619 42.0323 114.092C35.2581 125.094 28.3226 133.755 21.4032 139.528C16.6613 128.526 16.2903 108.11 20.129 96.05C18.871 96.3868 11.3871 98.7443 7.22581 99.9792C8.83871 88.9132 16.2419 74.0783 24.0161 66.7009C22.6613 66.4604 18.6774 65.8991 15.5323 65.3698C17.4677 61.4406 23.0968 54.1434 31.7581 47.2953C31.4903 49.9594 32.0137 52.6432 33.2635 55.0147C34.5133 57.3862 36.4348 59.3415 38.7903 60.6387C35.3226 54.6085 34.9032 47.1189 38.5484 43.3019C42.1936 39.4849 48.3065 40.7198 52.2097 43.783C51.3404 41.3101 49.7306 39.1609 47.5968 37.6245C59.6422 31.9367 73.1291 29.981 86.3064 32.0113C88.4384 33.9798 90.3971 36.126 92.1613 38.4264C92.1919 36.6061 92.0188 34.788 91.6452 33.0057C98.214 34.5913 104.562 36.972 110.548 40.0943C98.871 28.483 75.2258 25.0349 55.5161 30.6641C50.9797 31.9554 46.5737 33.6628 42.3548 35.7641C40.5943 35.8115 38.8729 36.2919 37.3446 37.1622C35.8163 38.0326 34.5287 39.2659 33.5968 40.7519C20.9677 49.0594 11.6935 60.0613 7.24194 69.2509C8.22581 69.4755 11.2258 69.8283 13.9032 70.3094C8.27419 78.3283 0.887097 93.5321 1.37097 107.084C2.64516 106.699 9.54839 104.598 12.9194 103.508C11.1129 115.472 11.6452 135.679 19.4839 147.194C27.4435 141.493 34.3241 134.434 39.8065 126.345C41.0323 132.279 42.2258 142.8 38.0323 160.265C41.371 162.895 66.1613 175.79 94.1452 158.934L96.4677 168.092L99.4839 166.135C106.234 161.983 112.035 156.472 116.513 149.956C120.991 143.44 124.047 136.064 125.484 128.302C126.258 129.152 129.371 132.52 130.484 133.658C134.661 122.063 143.21 94.1575 123.645 71.8009L123.581 71.7368Z" fill="white"/>
</svg>
