<svg width="539" height="80" viewBox="0 0 539 80" fill="none" xmlns="http://www.w3.org/2000/svg">
<g clip-path="url(#clip0_75_23)">
<path fill-rule="evenodd" clip-rule="evenodd" d="M392.05 31.2514C396.483 15.6725 416.894 10.2105 427.188 23.3566C427.714 21.1812 427.527 18.5966 428.451 16.6434H436.452V63.7776C436.452 64.1518 435.715 66.7598 435.528 67.3332C433.025 75.1226 426.112 79.0059 418.216 79.5791V79.8598H409.233V79.5791C400.694 78.9592 392.611 73.2515 392.12 64.199H401.946C403.689 73.462 419.69 74.3391 424.673 67.9766C426.1 66.1637 427.199 62.4209 427.199 60.1402V54.9706L422.24 59.392C402.449 68.5616 386.365 51.228 392.05 31.2514ZM412.777 53.813C432.241 55.2866 431.843 21.8834 411.982 24.2808C396.928 26.0937 396.974 52.6199 412.777 53.813Z" fill="#3EF3B4"/>
<path fill-rule="evenodd" clip-rule="evenodd" d="M294.403 46.7955C289.186 27.8598 303.082 11.6843 322.815 17.0643C329.88 18.9942 337.682 26.772 337.682 34.4095V40.8419C337.682 40.877 337.261 41.2633 337.261 41.2633H303.457C303.585 47.1229 306.638 52.6667 312.662 54.0469C318.768 55.4387 325.774 53.1462 327.307 46.5731H336.851C333.003 68.152 299.971 67.0176 294.403 46.7955ZM315.932 23.8479C309.498 23.8479 304.241 28.4592 303.888 34.2688H327.975C327.622 28.4593 322.365 23.848 315.932 23.8479Z" fill="#3EF3B4"/>
<path fill-rule="evenodd" clip-rule="evenodd" d="M499.85 23.2165C511.231 10.082 536.988 15.7663 538.579 33.9885L538.567 34H538.848V40.994H538.567L537.62 41.2983L504.622 41.2748C504.517 50.4678 511.851 56.222 520.905 54.0115C524.905 53.029 527.197 50.2924 528.613 46.585H538.017C534.987 64.538 510.073 67.146 499.429 54.421C492.586 46.2221 492.879 31.2632 499.85 23.2165ZM517.003 23.8479C510.569 23.8479 505.312 28.4593 504.959 34.2688H529.046C528.693 28.4593 523.436 23.848 517.003 23.8479Z" fill="#3EF3B4"/>
<path fill-rule="evenodd" clip-rule="evenodd" d="M344.408 30.3511C345.402 17.357 360.433 14.4093 371.066 16.7836C387.781 20.5029 382.073 37.5204 383.125 49.801C383.23 50.9823 383.511 52.7604 384.81 53.1581C385.523 53.3802 388.19 53.0645 388.19 53.7077V61.6843H380.47C380.154 61.6843 378.013 60.8539 377.604 60.62C375.639 59.4737 374.621 57.1928 374.715 54.9706C371.358 59.0057 367.346 61.7661 361.942 62.2339C350.724 63.2046 339.87 56.8538 343.648 44.2808C347.192 32.5147 364.153 34.6666 373.592 34.5496V29.9297C373.592 29.4616 372.551 27.6259 372.177 27.1347C368.609 22.4914 358.304 22.7602 354.947 27.5671C354.339 28.4443 354.163 29.509 353.532 30.3511H344.408ZM360.55 41.5322C360.047 41.5322 357.79 42.152 357.17 42.3626C350.222 44.7252 351.789 53.9415 359.146 54.6783C364.27 55.1929 369.942 53.801 372.387 48.8654C372.644 48.3624 373.592 45.9531 373.592 45.5905V41.5322H360.55Z" fill="#3EF3B4"/>
<path fill-rule="evenodd" clip-rule="evenodd" d="M194.534 16.1756C205.856 15.1931 216.395 20.702 219.355 32.0938C223.168 46.772 215.308 61.0643 199.493 62.2339C167.186 64.6082 165.607 18.6548 194.534 16.1636V16.1756ZM196.159 54.0938C215.249 55.4973 215.284 22.62 195.925 24.2808C179.842 25.6611 179.901 52.9006 196.159 54.0938Z" fill="#3EF3B4"/>
<path d="M455.249 42.7955C455.249 48.3159 458.946 53.4622 464.642 53.8598C473.333 54.4563 476.912 47.6491 477.415 40H477.403C477.906 32.3977 477.029 24.2925 477.403 16.6434H486.948V61.6609H478.667C478.129 61.6609 477.778 57.1 477.403 56.3511C469.554 65.2164 452.313 64.1985 447.529 52.7132C446.909 51.2043 445.704 47.0992 445.704 45.5905V16.6434H455.249V42.7955Z" fill="#3EF3B4"/>
<path d="M5.19348 30.9122C5.54439 32.6783 5.54459 34.4561 5.88381 36.2339V36.2454C8.05946 47.6606 19.2417 56.8887 31.009 56.3741V61.6843H0.140137V30.9122H5.19348Z" fill="#3EF3B4"/>
<path fill-rule="evenodd" clip-rule="evenodd" d="M122.34 0.140167C123.638 0.140307 127.861 1.4037 129.206 1.96508C144.119 8.15225 144.365 30.76 129.592 37.3097C128.048 37.9998 124.199 39.3097 122.62 39.3097H105.227C105.192 39.3097 104.808 39.7283 104.806 39.7312V61.6843H94.6995V0.140167H122.34ZM105.227 8.80699C105.133 8.94726 104.806 9.14599 104.806 9.22794V30.2105C104.806 30.2455 105.224 30.6291 105.227 30.6314H119.532V30.6199C133.288 30.6199 133.99 8.80705 118.971 8.80699H105.227Z" fill="#3EF3B4"/>
<path d="M155.723 22.807C156.156 22.7949 158.179 20.2457 158.811 19.7312L158.822 19.7427C160.402 18.4444 164.098 16.6549 166.11 16.6549H171.303V25.6025H164.987C160.168 25.6027 155.863 31.9882 155.863 36.3741V61.6843H146.319V16.6549H154.74L155.723 22.807Z" fill="#3EF3B4"/>
<path d="M263.324 52.7252H289.981V61.6723H253.229V0.140167H263.324V52.7252Z" fill="#3EF3B4"/>
<path d="M61.8773 30.9007H56.5436C57.07 19.1815 47.8059 8.02369 36.3546 5.85984C34.565 5.52066 32.7869 5.52044 31.009 5.16958V0.140167H61.8773V30.9007Z" fill="#3EF3B4"/>
</g>
<defs>
<clipPath id="clip0_75_23">
<rect width="539" height="80" fill="white"/>
</clipPath>
</defs>
</svg>
