<svg width="384" height="170" viewBox="0 0 384 170" fill="none" xmlns="http://www.w3.org/2000/svg">
<g clip-path="url(#clip0_73_15)">
<path d="M233.983 59.6092L230.986 63.3103C222.405 52.6338 207.807 45.2931 191.967 45.2931C176.128 45.2931 161.53 52.6338 152.948 63.3091L149.951 59.6092C159.401 48.315 174.892 40.6778 191.967 40.6778C209.043 40.6778 224.534 48.315 233.983 59.6092ZM153.963 39.8185C154.098 38.3523 153.695 37.3605 152.235 35.5718L143.865 25.2738L148.38 21.6061L157.497 32.8195C159.43 35.201 160.224 37.6224 159.927 40.2228C159.601 43.0927 158.213 45.4926 155.682 47.5592C153.409 49.3964 151.064 50.2869 148.54 50.2642C148.238 50.262 147.934 50.2459 147.628 50.2178C145.021 49.9785 142.813 48.7074 140.875 46.3313L131.755 35.1158L136.269 31.446L144.643 41.7386C146.097 43.5325 146.985 44.1309 148.445 44.298C149.599 44.4338 150.905 43.9886 152.028 43.0765C153.156 42.159 153.861 40.9721 153.963 39.8185ZM184.007 16.0734L172.765 18.3535L173.546 22.1991L183.834 20.112L184.922 25.469L174.636 27.5573L174.948 29.0979C175.364 31.1408 175.953 31.3425 177.774 30.9727L186.667 29.169L187.767 34.5886L178.626 36.4429C177.788 36.6123 176.996 36.6985 176.256 36.6996C174.8 36.7006 173.538 36.375 172.487 35.7261C170.894 34.7449 169.847 33.0631 169.373 30.728L166.459 16.3709C166.323 15.7036 166.425 15.088 166.755 14.5889C167.086 14.0919 167.613 13.7565 168.281 13.6218L182.909 10.6537L184.007 16.0734ZM208.429 20.2047L208.034 21.7215L218.181 24.3499L216.811 29.6326L206.667 27.0053L204.296 36.1875L200.949 35.3207C200.292 35.1504 199.783 34.7892 199.481 34.275C199.18 33.7617 199.109 33.1418 199.28 32.4831L202.96 18.2846C204.162 13.6499 207.544 11.8009 212.484 13.0805L221.497 15.4146L220.112 20.7577L211.347 18.4872C209.552 18.0226 208.95 18.1918 208.429 20.2047ZM127.109 31.4546L124.016 27.6349C125.553 26.0986 127.15 24.6076 128.817 23.1694C146.131 8.22805 168.56 0 191.967 0C215.376 0 237.803 8.22805 255.117 23.1694C256.783 24.6076 258.383 26.0986 259.919 27.6349L256.825 31.4546C255.263 29.873 253.63 28.3422 251.923 26.8684C235.495 12.6936 214.202 4.88702 191.967 4.88702C169.733 4.88702 148.44 12.6936 132.012 26.8684C130.305 28.3422 128.673 29.873 127.109 31.4546ZM233.206 50.4108L234.209 46.948L229.891 43.7233L233.369 41.2329L235.382 42.7455L237.67 35.035L224.398 43.6145L218.957 40.5376L239.774 27.07C240.577 26.5504 241.675 26.0911 243.064 27.1606L243.954 27.8462C245.357 28.9265 245.156 30.162 244.882 30.9985L237.972 54.7717L233.206 50.4108ZM140.637 156.922H140.763L139.963 168.646H107.048V168.524L109.937 165.026V133.349L107.048 129.85V129.726H138.613L139.102 139.919H138.982L134.684 135.314H119.883V145.566H129.032L132.777 142.374H132.902V154.407H132.777L129.032 151.213H119.883V162.998H135.236L140.637 156.922ZM140.361 108.785L143.736 112.283V112.407H130.168V112.283L133.543 108.785L135.203 77.1078L132.377 73.6093V73.4876H146.317L156.388 99.4529L165.723 73.4876H179.479V73.6093L176.959 77.1078L179.295 108.785L182.485 112.283V112.407H165.967V112.283L169.775 108.785L168.056 84.3537L157.983 112.407H151.906L141.035 84.6598L140.361 108.785ZM101.405 156.433H101.53L100.055 168.646H69.1661V168.462L72.0542 165.026V133.349L69.1661 129.85V129.726H85.6256V129.85L82.0009 133.349V162.937H95.3264L101.405 156.433ZM68.4026 108.785V95.0959H54.4634V108.785L57.289 112.283V112.407H41.6287V112.283L44.5157 108.785V77.1078L41.6287 73.6093V73.4876H57.289V73.6093L54.4634 77.1078V88.8946H68.4026V77.1078L65.577 73.6093V73.4876H81.2374V73.6093L78.3492 77.1078V108.785L81.2374 112.283V112.407H65.577V112.283L68.4026 108.785ZM315.566 156.922H315.691L314.892 168.646H281.976V168.524L284.864 165.026V133.349L281.976 129.85V129.726H313.541L314.031 139.919H313.909L309.611 135.314H294.811V145.566H303.959L307.705 142.374H307.831V154.407H307.705L303.959 151.213H294.811V162.998H310.164L315.566 156.922ZM159.224 153.115L164.629 137.649L169.232 153.115H159.224ZM171.076 129.726H157.873V129.85L160.147 133.349L148.173 165.026L145.1 168.524V168.646H158.119V168.524L155.109 165.026L157.198 158.949H170.955L172.735 165.026L169.542 168.524V168.646H186.182V168.524L182.988 165.026L171.076 129.726ZM34.4504 103.321H34.5733L34.0202 109.767C30.3372 112.529 24.9933 113.755 21.3686 113.755C7.85985 113.755 0 104.057 0 93.0065C0 81.8342 8.16828 72.1345 22.4136 72.1345C27.0208 72.1345 30.7631 73.0574 32.4855 73.7312L32.9169 86.0097H32.7907L26.7739 78.5793C25.2393 78.1524 23.5191 77.9681 21.7375 77.9681C15.0435 77.9681 10.377 83.5526 10.377 92.1462C10.377 99.1463 15.4749 107.249 23.4588 107.249C26.8343 107.249 31.3196 105.775 34.4504 103.321ZM247.075 112.407H231.412V112.283L234.301 108.785V77.1078L231.412 73.6093V73.4876H247.075V73.6093L244.248 77.1078V108.785L247.075 112.283V112.407ZM212.722 150.293H229.115V150.416L226.047 153.917V170H225.92L221.071 165.887C216.957 168.893 212.537 170 207.684 170C196.571 170 189.446 160.788 189.446 149.679C189.446 136.42 198.719 128.379 211.798 128.379C216.159 128.379 220.458 129.174 224.019 131.017L224.387 141.697H224.265L218.123 135.068C216.221 134.394 213.887 134.21 211.677 134.21C203.694 134.21 199.824 140.655 199.824 148.328C199.824 155.388 203.449 163.798 210.325 163.798C213.211 163.798 215.359 162.631 216.589 161.222V153.917L212.722 150.416V150.293ZM202.557 79.1346H205.811C211.4 79.1346 214.41 81.5884 214.41 86.7449C214.41 91.1047 212.078 94.0512 206.672 94.0512C205.197 94.0512 203.786 93.8668 202.557 93.4992V79.1346ZM189.722 112.283V112.407H206.608V112.283L202.557 108.785V98.6564C204.585 99.1463 207.348 99.3306 210.05 99.3306C218.34 99.3306 224.419 94.3595 224.419 86.318C224.419 78.5793 219.323 73.4876 208.147 73.4876H189.722V73.6093L192.611 77.1078V108.785L189.722 112.283ZM276.547 107.618C268.255 107.618 265.43 96.6297 265.43 89.8143C265.43 85.1493 267.395 78.2732 274.272 78.2732C282.872 78.2732 285.389 89.0186 285.389 95.7692C285.389 101.968 282.501 107.618 276.547 107.618ZM295.83 93.069C295.83 81.8966 287.843 72.1345 275.38 72.1345C264.079 72.1345 255.053 80.6687 255.053 92.3952C255.053 103.749 262.913 113.755 275.071 113.755C286.187 113.755 295.83 105.837 295.83 93.069ZM262.085 129.726H274.428V129.85L271.605 133.349V155.818C271.605 166.377 266.262 170 255.758 170C244.215 170 238.814 166.129 238.814 155.513V133.349L235.925 129.85V129.726H251.953V129.85L248.76 133.349V155.513C248.76 162.017 251.891 163.491 257.051 163.491C262.148 163.491 265.279 161.894 265.279 155.513V133.349L262.085 129.85V129.726ZM330.262 134.229V132.148H331.658C332.378 132.148 333.137 132.3 333.137 133.14C333.137 134.183 332.36 134.229 331.497 134.229H330.262ZM334.202 133.196C334.202 131.867 333.414 131.278 331.819 131.278H329.246V138.03H330.262V135.102H331.449L333.225 138.03H334.362L332.455 135.054C333.441 134.927 334.202 134.405 334.202 133.196ZM331.504 139.535C328.828 139.535 326.733 137.456 326.733 134.633C326.733 131.867 328.828 129.776 331.504 129.776C334.153 129.776 336.251 131.867 336.251 134.633C336.251 137.456 334.153 139.535 331.504 139.535ZM331.504 128.797C328.287 128.797 325.556 131.278 325.556 134.633C325.556 138.03 328.287 140.508 331.504 140.508C334.694 140.508 337.429 138.03 337.429 134.633C337.429 131.278 334.694 128.797 331.504 128.797ZM329.903 73.4876H342.796V73.6093L339.912 77.1078V112.407H332.542L312.832 83.0007V108.785L316.637 112.283V112.407H303.68V112.283L306.569 108.785V77.1078L303.68 73.6093V73.4876H317.866L333.649 97.7338V77.1078L329.903 73.6093V73.4876ZM383.933 101.173C383.933 109.582 375.58 113.755 365.632 113.755C361.029 113.755 356.116 113.081 352.06 111.238L351.632 99.5761H351.756L357.711 106.941C359.922 107.618 362.501 108.045 365.386 108.045C368.826 108.045 373.985 107.188 373.985 103.137C373.985 99.6353 370.609 98.4099 363.731 96.5084C354.825 94.0512 350.711 90.4902 350.711 84.538C350.711 75.3279 359.616 72.1345 368.889 72.1345C373.309 72.1345 377.176 72.873 380.863 74.2821L381.353 85.2744H381.231L375.336 78.8877C373.187 78.2117 370.792 77.9056 368.213 77.9056C365.143 77.9056 360.289 78.6452 360.289 82.3894C360.289 85.642 362.439 86.5023 369.501 88.4667C378.468 90.9829 383.933 93.2534 383.933 101.173ZM105.304 81.404L109.906 96.8761H99.897L105.304 81.404ZM98.7929 112.283L95.7826 108.785L97.8722 102.708H111.629L113.409 108.785L110.214 112.283V112.407H126.855V112.283L123.662 108.785L111.749 73.4876H98.5465V73.6093L100.821 77.1078L88.8459 108.785L85.7733 112.283V112.407H98.7929V112.283Z" fill="black"/>
</g>
<defs>
<clipPath id="clip0_73_15">
<rect width="383.933" height="170" fill="white"/>
</clipPath>
</defs>
</svg>
