<svg width="265" height="197" viewBox="0 0 265 197" fill="none" xmlns="http://www.w3.org/2000/svg">
<path d="M9.64241 0.128507C25.1472 0.438757 40.7967 -0.104244 56.3002 0.0977563C58.0939 0.121256 59.9664 0.218006 61.7337 0.518506C61.9412 2.20726 62.1287 3.77526 62.2504 5.47376L64.5692 42.6845C64.7357 44.3418 65.1274 50.9888 64.9904 52.4625C65.1432 59.8633 66.1724 68.0315 66.4324 75.5483C66.5552 79.1013 66.5739 82.5878 66.7412 86.1508L68.0984 112.216C68.2339 115.221 68.5977 118.25 68.7052 121.256C69.0447 130.754 69.2634 141.123 68.7882 150.623C70.9409 150.579 73.9774 150.805 75.8932 150.555C76.5632 147.434 77.8282 139.865 78.6747 137.344C80.1622 130.303 84.6207 118.483 87.0294 111.36L92.5909 95.1305C93.9144 91.208 95.0072 87.3818 96.6272 83.5605C96.7229 82.883 97.9479 79.5768 98.2479 78.8313C99.8394 72.597 101.527 68.3008 103.723 62.3133C104.554 60.5038 106.684 52.664 107.542 50.1513L120.195 13.0783C121.224 10.0735 123.024 3.34301 124.551 0.888257C128.217 -0.463243 134.592 0.126754 138.582 0.136254L160.409 0.252255C163.368 0.283005 173.031 -0.179746 175.267 0.497754C179.609 -0.157996 184.964 0.0630045 189.362 0.371755C193.311 0.197005 197.229 0.324006 201.227 0.320756C220.22 0.210256 237.94 3.72075 252.103 17.3415C263.593 28.391 266.343 44.8638 263.11 60.0495C262.74 61.7838 261.66 63.5825 260.14 64.522C256.74 64.996 214.728 64.9778 213.978 64.593C214.203 58.6113 216.323 50.4765 211.755 45.6918C202.012 35.4893 177.579 41.057 178.316 57.0658C178.439 59.735 178.171 61.894 180.486 64.0168C184.901 67.7168 194.706 71.9538 199.954 74.0975C223.49 83.712 251.6 93.8288 257.428 122.001C258.17 125.593 258.05 128.796 258.125 132.407C258.44 147.682 251.765 163.862 241.22 174.849C236.133 180.148 230.075 183.732 223.533 187.02C201.671 198.006 178.153 195.922 154.242 195.914L105.811 195.981C104.295 195.983 102.779 195.958 101.264 195.903C99.0414 196.285 90.5177 196.264 88.2342 196.241L70.8027 196.121C60.0214 196.077 49.1232 196.529 38.3704 195.919C33.2539 195.629 29.1384 192.798 25.9244 188.978C21.3782 183.575 21.5289 175.751 20.4542 169.113C18.8392 159.487 18.0934 149.825 16.9699 140.151L9.80791 81.7143L3.95366 35.833C2.68366 26.5055 1.30516 17.1815 0.416908 7.807C0.154908 5.04025 -0.162091 2.995 0.0954088 0.205754C1.98241 0.403504 7.28966 0.150257 9.64241 0.128507ZM167.747 131.79C167.49 135.985 165.815 140.061 166.374 144.323C166.728 147.019 168.053 149.383 170.228 151.028C175.54 155.046 185.298 156.44 191.772 155.52C196.883 154.794 202.51 151.658 205.608 147.497C207.973 144.322 209.03 139.776 208.418 135.842C206.648 124.49 179.963 116.537 170.602 112.272C163.073 108.842 156.028 105.339 149.316 100.42C149.355 100.382 137.239 129.911 136.834 131.358L137.253 131.732C138.698 131.478 146.85 131.512 148.964 131.596C154.385 131.81 162.674 131.221 167.747 131.79Z" fill="#C3D934"/>
<path d="M189.362 0.371718C193.311 0.196968 197.229 0.32397 201.227 0.32072C220.22 0.21022 237.94 3.72072 252.103 17.3415C263.593 28.391 266.343 44.8637 263.11 60.0495C262.74 61.7837 261.66 63.5825 260.14 64.522C256.74 64.996 214.728 64.9777 213.978 64.593C214.203 58.6112 216.323 50.4765 211.755 45.6917C202.012 35.4892 177.579 41.057 178.316 57.0657C178.439 59.735 178.171 61.894 180.486 64.0167C184.901 67.7167 194.706 71.9537 199.954 74.0975C223.49 83.712 251.6 93.8287 257.428 122.001C258.17 125.593 258.05 128.795 258.125 132.407C258.44 147.682 251.765 163.862 241.22 174.848C236.133 180.147 230.075 183.732 223.533 187.02C201.671 198.005 178.153 195.922 154.242 195.914L105.811 195.98C104.295 195.983 102.779 195.957 101.264 195.902C104.451 193.175 108.372 192.471 111.881 188.718C117.016 183.229 125.177 159.915 128.263 151.8C130.047 147.164 131.906 142.557 133.839 137.981C134.394 136.673 136.183 132.165 137.253 131.731C138.698 131.478 146.85 131.512 148.964 131.595C154.385 131.81 162.674 131.22 167.747 131.789C167.49 135.985 165.815 140.061 166.374 144.323C166.728 147.019 168.053 149.383 170.228 151.028C175.54 155.045 185.298 156.44 191.772 155.52C196.883 154.794 202.51 151.658 205.608 147.497C207.973 144.322 209.03 139.775 208.418 135.842C206.648 124.49 179.963 116.537 170.602 112.272C163.073 108.842 156.028 105.339 149.316 100.419C149.213 99.6537 152.944 91.0307 153.527 89.5905L178.699 27.115C181.538 20.1515 187.687 7.10422 189.362 0.371718Z" fill="#FEFEFE"/>
</svg>
