<svg width="24" height="24" viewBox="0 0 24 24" fill="none" xmlns="http://www.w3.org/2000/svg">
<path d="M9.60476 13.709C10.232 13.6927 10.7539 14.188 10.7704 14.8152C10.7781 15.1104 10.7719 15.4098 10.7509 15.7118C10.7342 15.9526 10.711 16.1921 10.6825 16.4292C10.6076 17.0521 10.0422 17.4964 9.41921 17.4217C8.79616 17.3468 8.35101 16.7806 8.42578 16.1575C8.44978 15.9574 8.46947 15.7565 8.48349 15.5547C8.49944 15.3249 8.50436 15.0979 8.49858 14.8746C8.48241 14.2474 8.97757 13.7254 9.60476 13.709Z" fill="currentColor"/>
<path d="M14.9004 10.5698C15.3699 10.1534 16.0882 10.1962 16.5046 10.6657C16.6646 10.846 16.8338 11.0316 17.0124 11.2214C17.1618 11.3801 17.3122 11.528 17.4625 11.6662C17.9245 12.0909 17.9548 12.8102 17.53 13.2722C17.1053 13.7342 16.386 13.7643 15.924 13.3397C15.7323 13.1634 15.5428 12.9763 15.3567 12.7786C15.1635 12.5733 14.9801 12.3711 14.8045 12.1731C14.3882 11.7036 14.431 10.9862 14.9004 10.5698Z" fill="currentColor"/>
<path d="M7.538 9.47692C8.05425 9.12027 8.76235 9.24936 9.11914 9.76545C9.45423 10.2505 9.74902 10.7748 9.99272 11.3306C10.2442 11.9051 9.98279 12.5753 9.40856 12.8274C8.83378 13.0794 8.16287 12.8171 7.91087 12.2424C7.72643 11.8217 7.50344 11.4248 7.24947 11.0572C6.89308 10.541 7.02211 9.83368 7.538 9.47692Z" fill="currentColor"/>
<path d="M12.6019 6.47088C13.178 6.22238 13.8464 6.48806 14.0952 7.06392C14.2709 7.47105 14.4832 7.88793 14.7459 8.32457C15.0691 8.86223 14.8954 9.5609 14.358 9.88441C13.8202 10.2079 13.1208 10.0342 12.7972 9.49645C12.4821 8.97264 12.2249 8.46465 12.0089 7.96413C11.7606 7.38805 12.0259 6.71949 12.6019 6.47088Z" fill="currentColor"/>
<path fill-rule="evenodd" clip-rule="evenodd" d="M12 2C17.5228 2 22 6.47715 22 12C22 17.5228 17.5228 22 12 22C6.47715 22 2 17.5228 2 12C2 6.47715 6.47715 2 12 2ZM10.8725 3.89719C8.79274 4.18392 6.96169 5.25 5.68697 6.79403C5.70824 6.80292 5.72991 6.81126 5.75089 6.82156C6.02308 6.9552 6.2898 7.10519 6.54812 7.26989C7.07695 7.6073 7.2323 8.31045 6.89524 8.83949C6.55781 9.3683 5.85556 9.52369 5.32653 9.18661C5.13758 9.06613 4.94422 8.95821 4.74947 8.86257C4.66123 8.81923 4.58198 8.76484 4.51065 8.70366C4.06611 9.71221 3.81818 10.827 3.81818 12C3.81818 14.9694 5.40012 17.569 7.76705 19.0028C7.81698 18.8531 7.86798 18.7039 7.91353 18.5536C8.09579 17.9533 8.73001 17.6144 9.33043 17.7963C9.93075 17.9785 10.2705 18.6128 10.0886 19.2132C10.0188 19.4436 9.94378 19.672 9.86577 19.8986C10.5463 20.0821 11.2615 20.1818 12 20.1818C15.3092 20.1818 18.1571 18.2161 19.4458 15.3896C19.1772 15.3065 18.9089 15.2113 18.6424 15.1001C18.0633 14.8584 17.7899 14.1922 18.0316 13.6131C18.2734 13.034 18.9386 12.7607 19.5178 13.0023C19.7071 13.0813 19.8982 13.1506 20.0913 13.2109C20.1499 12.8157 20.1818 12.4115 20.1818 12C20.1818 7.88572 17.1449 4.48171 13.1905 3.90518C13.2161 4.02969 13.2411 4.15258 13.2669 4.27362C13.3971 4.88724 13.0051 5.49067 12.3915 5.62127C11.7778 5.75161 11.1745 5.3596 11.0439 4.74592C10.9892 4.48904 10.9364 4.22827 10.8832 3.96644C10.8784 3.94304 10.8756 3.91987 10.8725 3.89719Z" fill="currentColor"/>
</svg>
