<svg width="16" height="16" viewBox="0 0 16 16" fill="none" xmlns="http://www.w3.org/2000/svg">
<path d="M6.33412 9.13838C6.79738 9.12649 7.18299 9.49255 7.19518 9.95581C7.20053 10.1624 7.19626 10.3719 7.1816 10.5832C7.16992 10.7514 7.15298 10.919 7.13312 11.0845C7.07769 11.5446 6.6605 11.8728 6.2003 11.8176C5.74006 11.7623 5.41105 11.3441 5.46627 10.8838C5.48286 10.7454 5.49635 10.6062 5.50603 10.4668C5.51698 10.3089 5.52066 10.1529 5.51669 9.99945C5.50475 9.53613 5.87076 9.15051 6.33412 9.13838Z" fill="currentColor"/>
<path d="M9.98296 6.96925C10.3298 6.66166 10.8602 6.69324 11.1679 7.04003C11.2787 7.16499 11.3961 7.29349 11.5199 7.42499C11.6228 7.53436 11.7266 7.63614 11.8302 7.7314C12.1715 8.04519 12.1944 8.57696 11.8806 8.91827C11.5668 9.25951 11.035 9.28138 10.6937 8.96772C10.5596 8.8444 10.4273 8.71326 10.2971 8.57501C10.1624 8.4319 10.0345 8.29106 9.91218 8.15321C9.6047 7.80646 9.6364 7.27692 9.98296 6.96925Z" fill="currentColor"/>
<path d="M4.8709 6.20515C5.25216 5.94212 5.77485 6.03748 6.03837 6.41848C6.27304 6.75817 6.47955 7.12588 6.65023 7.51517C6.83583 7.93949 6.64287 8.43438 6.21873 8.62058C5.79409 8.80675 5.2985 8.6127 5.11234 8.18811C4.98546 7.8988 4.83228 7.62552 4.65757 7.37263C4.39433 6.99132 4.48979 6.46871 4.8709 6.20515Z" fill="currentColor"/>
<path d="M8.39853 4.11165C8.82411 3.92806 9.31822 4.12454 9.50201 4.54994C9.62317 4.83066 9.76962 5.1183 9.95096 5.41973C10.1896 5.81674 10.0616 6.33256 9.66491 6.57169C9.26776 6.81061 8.75109 6.68266 8.51198 6.28563C8.29177 5.9196 8.11122 5.56402 7.96024 5.21416C7.77719 4.78877 7.9733 4.29534 8.39853 4.11165Z" fill="currentColor"/>
<path fill-rule="evenodd" clip-rule="evenodd" d="M8 1C11.8661 1 15 4.1339 15 8C15 11.8661 11.8661 15 8 15C4.1339 15 1 11.8661 1 8C1 4.1339 4.1339 1 8 1ZM7.17385 2.42541C5.78389 2.62956 4.55882 3.339 3.69276 4.36376C3.87856 4.45565 4.06124 4.55766 4.23771 4.67018C4.62829 4.91948 4.74266 5.43913 4.4937 5.82989C4.24447 6.22047 3.72574 6.33567 3.33495 6.08685C3.20523 6.00414 3.07213 5.92953 2.93836 5.86383C2.89374 5.8419 2.85359 5.81458 2.81521 5.78626C2.52458 6.46594 2.36238 7.21394 2.36238 8C2.36238 10.0229 3.42927 11.7955 5.02992 12.7901C5.05792 12.7065 5.08708 12.6242 5.11234 12.5409L5.14143 12.4595C5.30557 12.0674 5.74298 11.8556 6.15861 11.9814C6.60196 12.116 6.85324 12.5842 6.71907 13.0277C6.6757 13.1708 6.62836 13.3126 6.58041 13.4534C7.03422 13.5713 7.50937 13.6376 8 13.6376C10.2601 13.6376 12.2065 12.3057 13.1053 10.3854C12.9358 10.3314 12.7665 10.2704 12.5981 10.2002C12.1705 10.0216 11.9681 9.5302 12.1463 9.10251C12.3248 8.67486 12.8162 8.47246 13.2439 8.65064C13.3549 8.69696 13.4675 8.73782 13.5804 8.77476C13.6154 8.52124 13.6376 8.26295 13.6376 8C13.6376 5.19 11.5809 2.86135 8.89112 2.43413C8.90393 2.49654 8.91596 2.55835 8.92894 2.61934C9.02516 3.07266 8.73548 3.5187 8.28217 3.61518C7.82895 3.71128 7.38383 3.42157 7.2873 2.96842C7.24925 2.78966 7.2118 2.60821 7.17482 2.42637L7.17385 2.42541Z" fill="currentColor"/>
</svg>
