<svg width="16" height="16" viewBox="0 0 16 16" fill="none" xmlns="http://www.w3.org/2000/svg">
<path fill-rule="evenodd" clip-rule="evenodd" d="M8.30896 0.958922C12.0075 1.14686 14.9512 4.205 14.9512 7.9502C14.9511 11.6953 12.0084 14.7535 8.30993 14.9415L7.95116 14.9502C4.08472 14.9501 0.949267 11.8165 0.949219 7.9502C0.949219 4.08384 4.08372 0.950261 7.95019 0.950195L8.30896 0.958922ZM6.58587 8.16061C6.16099 9.9343 5.98238 11.8272 6.41618 13.5946C7.65822 13.9308 9.00925 13.8435 10.1979 13.3493C9.67397 12.2914 9.06599 11.0789 8.37878 10.0544C7.79143 9.17883 7.18675 8.50738 6.58587 8.16061ZM5.33889 7.88135C4.62214 7.93962 4.00277 8.36242 3.46743 8.97125C3.12021 9.36612 2.8236 9.82122 2.57825 10.2628C3.0744 11.4134 3.92808 12.3723 5.00047 13.0002C4.76361 11.3373 4.94119 9.55716 5.33889 7.88135ZM6.93495 6.90393C7.89512 7.35107 8.71475 8.27516 9.3979 9.2796C10.1443 10.3772 10.7877 11.6563 11.3188 12.7287C12.3566 11.9955 13.1427 10.9343 13.5296 9.69559C11.977 8.01325 9.53308 6.98525 7.0804 6.46273C7.03039 6.60823 6.98186 6.75551 6.93495 6.90393ZM5.80529 6.23583C4.56581 6.05643 3.39172 6.00589 2.41535 6.0545C2.21168 6.649 2.09924 7.28612 2.09924 7.9502L2.10506 8.20425L2.12154 8.46121C2.12538 8.50503 2.13129 8.54858 2.13609 8.59211C2.30301 8.36945 2.47913 8.15461 2.66649 7.94923L2.6694 7.94632C3.42058 7.15547 4.42596 6.52574 5.68893 6.59751C5.72687 6.47606 5.76542 6.35521 5.80529 6.23583ZM12.8237 4.7154C12.2906 4.67052 11.6896 4.74516 10.9755 4.84048C10.0143 4.96858 8.89896 5.11658 7.68159 4.93163C7.63485 5.03699 7.5896 5.14486 7.5439 5.25356C9.77958 5.75353 12.0801 6.67478 13.7914 8.17225C13.8368 6.95319 13.5006 5.73355 12.8237 4.7154ZM4.51467 3.2163C3.9366 3.63659 3.44049 4.16125 3.04951 4.76097C4.02798 4.75497 5.12629 4.83262 6.2591 5.01115C6.31252 4.87887 6.36662 4.74757 6.422 4.61843C5.45005 4.27765 4.85426 3.78601 4.51467 3.2163ZM9.23596 2.2447C8.9321 2.62607 8.60695 3.12404 8.28472 3.71277C9.15574 3.78585 9.98826 3.68249 10.8078 3.57313C11.1029 3.53377 11.4018 3.494 11.697 3.46453C10.9959 2.87799 10.158 2.45163 9.23596 2.2447ZM7.76983 2.10506C7.04164 2.12754 6.32004 2.28588 5.65015 2.57244C5.8464 2.8847 6.22228 3.21077 6.97568 3.45484C7.2326 2.96091 7.50042 2.50671 7.76983 2.10506Z" fill="currentColor"/>
</svg>
