<svg width="24" height="24" viewBox="0 0 24 24" fill="none" xmlns="http://www.w3.org/2000/svg">
<path fill-rule="evenodd" clip-rule="evenodd" d="M12.5647 1.01458C18.3755 1.30922 22.9979 6.11472 22.9981 12L22.9835 12.5657C22.6983 18.1904 18.1882 22.7003 12.5647 22.9854L11.999 23C6.11488 22.9997 1.31106 18.3778 1.01652 12.5657L1.00194 12C1.00207 5.92491 5.92514 1.00035 11.999 1L12.5647 1.01458ZM9.78289 12.2031C9.08578 15.0661 8.7844 18.1393 9.50004 21.0065C11.5268 21.5675 13.7394 21.4208 15.6741 20.5934C14.8359 18.8996 13.8569 16.9386 12.7475 15.2844C11.7839 13.8478 10.7854 12.7441 9.78289 12.2031ZM7.97013 11.7998C6.75691 11.8583 5.72049 12.5572 4.83838 13.561C4.27335 14.2038 3.79517 14.9449 3.40081 15.6595C4.21389 17.568 5.64314 19.148 7.43845 20.155C7.02254 17.451 7.30995 14.536 7.97013 11.7998ZM10.2873 10.3865C11.8161 11.0713 13.1237 12.5407 14.22 14.153C15.4184 15.9156 16.4508 17.9749 17.3003 19.6913C19.0118 18.5088 20.3071 16.7734 20.9297 14.741C18.4404 12.0195 14.4982 10.3733 10.5644 9.54573C10.4684 9.8225 10.3761 10.1031 10.2873 10.3865ZM8.71467 9.2172C6.68657 8.91708 4.76505 8.83324 3.17628 8.91685C2.83915 9.88201 2.6524 10.9189 2.65238 12L2.65918 12.3441C2.67065 12.6441 2.69794 12.9403 2.73694 13.2325C3.03448 12.821 3.35542 12.4302 3.69726 12.0554L3.69921 12.0544L3.70115 12.0525C4.89372 10.7962 6.48343 9.80868 8.48042 9.94619C8.55607 9.70107 8.63396 9.45782 8.71467 9.2172ZM19.7613 6.79694C18.8961 6.7177 17.9243 6.83928 16.7783 6.99231C15.2384 7.19757 13.4617 7.4346 11.5227 7.12839C11.4259 7.34491 11.3309 7.56643 11.237 7.79129C14.8572 8.58852 18.5915 10.0766 21.3243 12.5258C21.4366 10.5075 20.8902 8.47847 19.7613 6.79694ZM6.58602 4.38252C5.58815 5.09332 4.73814 5.99539 4.08509 7.03508C5.68693 7.01566 7.50076 7.13948 9.37368 7.43846C9.47729 7.18066 9.58333 6.9263 9.69152 6.67642C8.07078 6.12511 7.11176 5.31377 6.58602 4.38252ZM14.0023 2.86816C13.4872 3.50744 12.9329 4.35624 12.3878 5.36617C13.8264 5.50588 15.1959 5.33001 16.5343 5.15137C17.0717 5.07968 17.6124 5.0087 18.1449 4.96183C16.9812 3.94406 15.5654 3.20949 14.0023 2.86816ZM11.8736 2.65627C10.6215 2.67306 9.37747 2.93924 8.23159 3.44455C8.54458 3.99569 9.17556 4.57016 10.4954 4.98516C10.9402 4.12387 11.4065 3.33914 11.8736 2.65627Z" fill="currentColor"/>
</svg>
