<svg width="24" height="24" viewBox="0 0 24 24" fill="none" xmlns="http://www.w3.org/2000/svg">
<path fill-rule="evenodd" clip-rule="evenodd" d="M9.69638 2.3312C11.6238 0.374728 14.4543 0.663051 16.3807 2.61883L21.409 7.72371C23.3271 9.67109 23.616 12.5236 21.6967 14.4722L16.9187 19.3229C15.9146 20.3422 14.5783 20.5502 13.5461 20.5295C12.869 20.5159 12.247 20.3997 11.8002 20.2958L9.79828 22.3239C8.8953 23.2406 7.4346 23.2144 6.54407 22.3103L1.67294 17.3645C0.790443 16.4684 0.765339 15.0124 1.65937 14.1045L3.41688 12.3237C2.19696 10.4468 2.29867 7.8279 3.95229 6.14895L4.77288 5.31576L4.77967 5.30897C5.6012 4.47899 6.72011 4.13018 7.79138 4.26432L9.69638 2.3312ZM3.07453 15.4983C2.96113 15.6137 2.94802 15.8284 3.08811 15.9707L7.95924 20.9165C8.09173 21.051 8.27819 21.0366 8.38311 20.9301L10.1057 19.1842L4.74378 13.8068L3.07453 15.4983ZM14.9646 4.01266C13.8222 2.85333 12.2667 2.5527 11.1115 3.72503L9.72063 5.13631C9.78219 5.19085 9.84252 5.24762 9.90104 5.30703L12.3318 7.77363C13.4317 8.8904 13.528 10.6286 12.6373 11.862L14.4909 13.7437C14.6103 13.8646 14.8037 13.869 14.9312 13.7398L17.7199 10.9085L19.135 12.3024L16.3464 15.1337C15.4465 16.0469 13.9782 16.0547 13.0747 15.1375L11.001 13.0327C9.93358 13.3553 8.73109 13.0936 7.89032 12.2403L7.4422 11.7844L8.85737 10.3906L9.30549 10.8455C9.68302 11.2287 10.2612 11.2851 10.7003 11.0084C10.7735 10.9623 10.8441 10.9054 10.9098 10.8387C11.3669 10.3741 11.3637 9.62236 10.9156 9.16746L8.48587 6.70086C8.29154 6.50364 8.06378 6.36888 7.82339 6.29347C7.26828 6.11938 6.63505 6.25581 6.18804 6.70959L5.36746 7.54278C4.28927 8.63748 4.32169 10.5505 5.44603 11.6952L12.0398 18.3112C12.4126 18.4074 12.9783 18.5308 13.5859 18.5431C14.3712 18.5588 15.0512 18.3882 15.5035 17.9291L20.2815 13.0774C21.4446 11.8963 21.1446 10.2858 19.9938 9.11754L14.9646 4.01266Z" fill="currentColor"/>
</svg>
