<svg width="16" height="16" viewBox="0 0 16 16" fill="none" xmlns="http://www.w3.org/2000/svg">
<g clip-path="url(#clip0_37_358)">
<path fill-rule="evenodd" clip-rule="evenodd" d="M6.32476 0.968145C7.72653 -0.454743 9.78505 -0.245054 11.1861 1.17733L14.843 4.88997C16.238 6.30625 16.4481 8.38084 15.0523 9.79793L11.5773 13.3258C10.8471 14.067 9.87522 14.2183 9.12459 14.2033C8.63213 14.1934 8.17979 14.1088 7.85482 14.0333L6.39887 15.5083C5.74216 16.175 4.67983 16.1559 4.03217 15.4984L0.489534 11.9015C-0.152286 11.2498 -0.170543 10.1908 0.479658 9.53055L1.75785 8.23542C0.870633 6.8704 0.944605 4.96574 2.14724 3.74469L2.74403 3.13873L2.74897 3.13379C3.34645 2.53017 4.1602 2.27649 4.93931 2.37405L6.32476 0.968145ZM1.50887 10.5442C1.4264 10.6281 1.41686 10.7843 1.51875 10.8878L5.06138 14.4847C5.15774 14.5825 5.29335 14.5721 5.36965 14.4946L6.62245 13.2249L2.72287 9.31401L1.50887 10.5442ZM10.1562 2.19102C9.32533 1.34788 8.19405 1.12924 7.35397 1.98184L6.3424 3.00823C6.38717 3.04789 6.43104 3.08918 6.4736 3.13238L8.2414 4.92628C9.04135 5.73847 9.11143 7.00262 8.4636 7.89964L9.81167 9.26816C9.8985 9.35609 10.0391 9.35925 10.1319 9.26534L12.16 7.2062L13.1892 8.2199L11.1611 10.279C10.5067 10.9432 9.43879 10.9489 8.78175 10.2819L7.27355 8.75108C6.49727 8.98571 5.62273 8.79536 5.01126 8.17475L4.68535 7.8432L5.71457 6.82951L6.04047 7.16035C6.31504 7.43908 6.73557 7.48006 7.05487 7.27886C7.10813 7.24529 7.15944 7.20395 7.20724 7.15541C7.53971 6.81754 7.53734 6.27081 7.21148 5.93997L5.44439 4.14608C5.30306 4.00265 5.13741 3.90464 4.96259 3.8498C4.55887 3.72319 4.09834 3.82241 3.77324 4.15243L3.17645 4.75838C2.39232 5.55453 2.41589 6.94583 3.23359 7.7783L8.02906 12.59C8.30022 12.6599 8.71158 12.7497 9.15351 12.7586C9.72465 12.77 10.2192 12.646 10.5481 12.3121L14.023 8.78353C14.8689 7.9246 14.6507 6.75333 13.8138 5.90367L10.1562 2.19102Z" fill="currentColor"/>
</g>
<defs>
<clipPath id="clip0_37_358">
<rect width="16" height="16" fill="white"/>
</clipPath>
</defs>
</svg>
