<svg width="16" height="16" viewBox="0 0 16 16" fill="none" xmlns="http://www.w3.org/2000/svg">
<path fill-rule="evenodd" clip-rule="evenodd" d="M12.1965 1.21258C12.7574 1.46519 13.3047 1.87929 13.7519 2.32911C14.1964 2.77613 14.5944 3.31112 14.8107 3.83862L15 4.30083L6.48603 12.7513L6.02251 12.5563L6.02056 12.5553L6.01666 12.5544C6.01386 12.5532 6.01014 12.5513 6.00592 12.5495C5.99753 12.5458 5.98634 12.541 5.97275 12.5349C5.9453 12.5225 5.9076 12.5046 5.8615 12.4822C5.76954 12.4375 5.64262 12.3728 5.49655 12.2882C5.36586 12.2124 5.21555 12.1169 5.05743 12.0044L2.05973 15L1 13.941L3.99672 10.9454C3.88169 10.7851 3.78328 10.6325 3.70496 10.4998C3.61761 10.3517 3.54963 10.2224 3.50296 10.1292C3.47966 10.0827 3.4612 10.0446 3.44832 10.0171C3.44198 10.0035 3.43744 9.99221 3.43368 9.98391C3.43179 9.97974 3.43002 9.97591 3.4288 9.97318L3.42685 9.96928L3.42587 9.96831L3.21998 9.49829L11.7242 1L12.1965 1.21258ZM5.03499 9.80156C5.16807 10.0193 5.34101 10.2644 5.54046 10.4637C5.73517 10.6582 5.96867 10.8218 6.17572 10.9473L13.1879 3.98781C13.0567 3.79489 12.8891 3.58713 12.6883 3.38518C12.474 3.16962 12.2428 2.97842 12.016 2.82545L5.03499 9.80156Z" fill="currentColor"/>
<path d="M4.77835 1.16187C5.72538 1.16191 6.49286 1.92978 6.49286 2.87616C6.49262 3.82233 5.72523 4.58943 4.77835 4.58947C3.83144 4.58947 3.06408 3.82236 3.06385 2.87616C3.06385 1.92976 3.83129 1.16187 4.77835 1.16187Z" fill="currentColor"/>
</svg>
