<svg width="24" height="24" viewBox="0 0 24 24" fill="none" xmlns="http://www.w3.org/2000/svg">
<path fill-rule="evenodd" clip-rule="evenodd" d="M18.4043 2.3546C19.9503 3.04743 21.157 4.2639 21.7477 5.69714L22 6.31042L9.74963 18.4123L9.1924 18.2602L9.18948 18.2593H9.18753C9.18753 18.2593 9.18286 18.2579 9.18071 18.2573C9.17593 18.256 9.16955 18.2534 9.16318 18.2515C9.15007 18.2477 9.13287 18.2431 9.11349 18.237C9.07429 18.2245 9.02172 18.2067 8.95957 18.1837C8.83522 18.1376 8.667 18.0682 8.47151 17.9696C8.28402 17.875 8.06861 17.7506 7.84023 17.5937L3.41062 22L2 20.5971L6.42767 16.1927C6.26395 15.9606 6.13333 15.7406 6.03215 15.5504C5.92702 15.3526 5.85044 15.1821 5.79932 15.0572C5.77378 14.9948 5.75385 14.9427 5.73989 14.9041C5.73308 14.8853 5.72757 14.8691 5.72333 14.8567C5.72129 14.8507 5.71989 14.8446 5.71846 14.8402C5.71776 14.8381 5.71554 14.8334 5.71554 14.8334V14.8315L5.71456 14.8305L5.52947 14.2531L17.7769 2.07363L18.4043 2.3546ZM7.86167 14.7394C8.00354 14.9859 8.20552 15.28 8.48125 15.5542C8.74313 15.8146 9.01254 15.997 9.23527 16.1229L19.6045 5.87928C19.267 5.34394 18.782 4.85573 18.1783 4.47929L7.86167 14.7394Z" fill="currentColor"/>
<path d="M7.43302 2C8.81037 2 9.92694 3.11045 9.92694 4.48026C9.9268 5.84996 8.81029 6.96052 7.43302 6.96052C6.05581 6.96045 4.93925 5.84992 4.93911 4.48026C4.93911 3.11049 6.05573 2.00007 7.43302 2Z" fill="currentColor"/>
</svg>
