<svg width="16" height="16" viewBox="0 0 16 16" fill="none" xmlns="http://www.w3.org/2000/svg">
<path d="M5.48523 7.23576H6.40277V8.07742H5.48523V8.97258H4.62161V8.07646L4.52341 8.07742L3.70407 8.07838V7.23576H4.62161V6.34155H5.48523V7.23576Z" fill="currentColor"/>
<path d="M11.3602 7.83285C11.6593 7.66581 12.0427 7.76552 12.2151 8.0564C12.3653 8.31112 12.3049 8.62932 12.0881 8.81781L11.985 8.89042C11.6862 9.05794 11.3039 8.95691 11.131 8.66591C10.9589 8.37417 11.0615 8.00124 11.3602 7.83285Z" fill="currentColor"/>
<path d="M10.5264 6.42371C10.8253 6.25689 11.2079 6.35641 11.3804 6.64727C11.5517 6.9384 11.4486 7.31166 11.1513 7.48033C10.8522 7.64807 10.4691 7.54771 10.2963 7.25678C10.1241 6.96511 10.2275 6.59218 10.5264 6.42371Z" fill="currentColor"/>
<path fill-rule="evenodd" clip-rule="evenodd" d="M10.9577 4C11.6576 4.00009 12.3121 4.12701 12.8804 4.44328C13.3896 4.72687 13.7449 5.11508 13.9925 5.52664L14.0926 5.70434L14.1754 5.87535C14.3586 6.27568 14.4629 6.6855 14.5355 7.03323C14.5779 7.23665 14.6137 7.44315 14.6462 7.62936C14.6798 7.82182 14.7103 7.9956 14.7444 8.16722C14.8518 8.70775 15.0569 9.63461 14.9851 10.4677C14.947 10.9085 14.8254 11.4439 14.4787 11.9275C14.1556 12.3778 13.701 12.6932 13.1616 12.8666L13.1577 12.8685L12.9286 12.9325L12.9247 12.9334C12.1479 13.116 11.4533 12.892 10.9664 12.6363C10.4775 12.3794 10.0636 12.0222 9.75232 11.7116C9.51805 11.4777 9.31355 11.2377 9.14673 11.0294H6.85432C6.68689 11.2385 6.48124 11.4796 6.24584 11.7144C5.93471 12.0247 5.52106 12.3799 5.03272 12.6363C4.57658 12.8757 3.93817 13.0867 3.22075 12.9621H3.21882L3.07922 12.9334H3.07633C2.43276 12.7821 1.8921 12.4424 1.52239 11.9275C1.17569 11.4442 1.05321 10.9096 1.015 10.4687C0.942935 9.6353 1.14824 8.70797 1.25569 8.16722C1.2884 8.00262 1.31673 7.83238 1.34716 7.64465C1.37636 7.4645 1.40891 7.25936 1.44633 7.05998C1.51968 6.66932 1.63082 6.18482 1.85936 5.72631C2.10197 5.23989 2.48229 4.76986 3.07537 4.44137C3.64973 4.12346 4.31368 4.00009 5.02309 4H10.9577ZM4.82572 5.46168L4.82476 5.46073C4.34066 5.48357 3.99083 5.59185 3.73296 5.75593C3.4755 5.91991 3.30151 6.14557 3.1755 6.41703C3.04866 6.69049 2.97078 7.00919 2.90688 7.35613C2.84451 7.69478 2.7927 8.07983 2.7201 8.44523L2.62767 8.91908C2.52132 9.48698 2.43993 10.0766 2.52947 10.5565C2.57392 10.7947 2.66032 11.0011 2.80097 11.1632C2.94078 11.324 3.14052 11.4488 3.42486 11.5157C3.71499 11.5837 4.02104 11.5118 4.32411 11.3533C4.62718 11.1947 4.92031 10.9535 5.17714 10.6979C5.68989 10.1876 6.04778 9.63398 6.05906 9.61648L6.08794 9.57158H9.91215L9.94103 9.61648C9.95375 9.6362 10.2899 10.1541 10.7758 10.6492C11.0199 10.8979 11.2994 11.1382 11.5913 11.3065C11.8833 11.4748 12.1805 11.5673 12.4645 11.5348L12.581 11.5138C12.9026 11.4369 13.1163 11.2865 13.2569 11.0906C13.3998 10.8913 13.4734 10.6365 13.4985 10.3454C13.5491 9.75931 13.4021 9.05993 13.28 8.44523C13.2431 8.2597 13.2106 8.07391 13.1789 7.89208C13.1471 7.70976 13.1161 7.53096 13.0807 7.35804C13.0098 7.01165 12.9236 6.69273 12.7899 6.41894C12.657 6.1468 12.4776 5.92037 12.22 5.75593C11.9621 5.5915 11.618 5.48349 11.1493 5.46073L10.9558 5.4569H5.02598L4.82572 5.46168Z" fill="currentColor"/>
</svg>
