<svg width="24" height="24" viewBox="0 0 24 24" fill="none" xmlns="http://www.w3.org/2000/svg">
<path d="M8.36816 10.6457H9.69139V11.8801H8.36816V13.1931H7.12228V11.8801L5.79998 11.881V10.6466L7.12228 10.6457V9.33367H8.36816V10.6457Z" fill="currentColor"/>
<path d="M16.8471 11.5216C17.2787 11.2749 17.8305 11.422 18.0799 11.8496C18.3293 12.2779 18.181 12.8266 17.7491 13.0739C17.3173 13.3203 16.7654 13.172 16.5163 12.744C16.2678 12.316 16.4157 11.7688 16.8471 11.5216Z" fill="currentColor"/>
<path d="M15.6431 9.45471C16.075 9.20791 16.6267 9.35466 16.876 9.78271C17.1248 10.2108 16.9767 10.7579 16.5451 11.0051C16.1134 11.2517 15.5616 11.105 15.3123 10.6771C15.0632 10.2491 15.2117 9.70212 15.6431 9.45471Z" fill="currentColor"/>
<path fill-rule="evenodd" clip-rule="evenodd" d="M16.2684 6C17.2669 6 18.1918 6.18497 18.9931 6.63846C19.813 7.10259 20.3493 7.76105 20.7012 8.44574C21.0363 9.09791 21.213 9.79003 21.3321 10.3704C21.3929 10.6669 21.4444 10.9672 21.4914 11.2407C21.5399 11.5231 21.5835 11.7792 21.633 12.0326C21.789 12.8306 22.081 14.175 21.9788 15.3801C21.9247 16.0162 21.7531 16.7807 21.2668 17.4701C20.814 18.112 20.1774 18.5635 19.4171 18.8117L19.0835 18.905C17.9944 19.1652 17.0185 18.847 16.328 18.4781C15.6349 18.1077 15.0458 17.5933 14.6004 17.1412C14.2501 16.7856 13.9443 16.4216 13.6993 16.1082H10.3008C10.0551 16.4225 9.74848 16.7873 9.39692 17.1439C8.9515 17.5957 8.36316 18.1102 7.6702 18.48C6.98005 18.8483 6.0061 19.1647 4.91845 18.905C4.01076 18.6879 3.25189 18.2044 2.7342 17.471C2.2478 16.7818 2.07555 16.0172 2.02133 15.381C1.91877 14.1758 2.21103 12.8309 2.36705 12.0326C2.41463 11.789 2.45548 11.5382 2.49937 11.2629C2.54168 10.9975 2.58815 10.6978 2.64194 10.4064C2.74731 9.83573 2.90564 9.13787 3.22901 8.47807C3.57166 7.7791 4.10721 7.10615 4.94268 6.63569C5.75236 6.17985 6.6917 6.00005 7.70468 6H16.2684ZM7.70468 7.89228L7.41674 7.89875C4.53897 8.03383 4.66292 10.2291 4.24007 12.3929L4.10588 13.0877C3.79901 14.7534 3.61854 16.6475 5.36481 17.0654C7.22682 17.5101 9.29403 14.2548 9.31865 14.2159H14.6805C14.698 14.2435 16.6431 17.3094 18.4601 17.0968L18.6362 17.0654C20.3824 16.6474 20.2003 14.7534 19.8933 13.0877L19.76 12.3929C19.3236 10.1594 19.3371 7.89228 16.2684 7.89228H7.70468Z" fill="currentColor"/>
</svg>
