<svg width="24" height="24" viewBox="0 0 24 24" fill="none" xmlns="http://www.w3.org/2000/svg">
<path fill-rule="evenodd" clip-rule="evenodd" d="M12 1C12.3777 1.00001 12.7513 1.01846 13.1191 1.05566C13.1646 1.06026 13.2096 1.0681 13.2549 1.07324C13.3926 1.0889 13.5299 1.1043 13.666 1.125C13.7194 1.1331 13.7721 1.14445 13.8252 1.15332C13.9515 1.17443 14.0774 1.19532 14.2021 1.2207C14.266 1.23368 14.3291 1.24959 14.3926 1.26367C14.5064 1.28895 14.62 1.314 14.7324 1.34277C15.2201 1.46745 15.6942 1.62607 16.1533 1.81348C16.1786 1.82381 16.2043 1.83323 16.2295 1.84375C16.3567 1.89678 16.4817 1.9541 16.6064 2.01172C16.6424 2.02836 16.6791 2.04353 16.7148 2.06055C16.8451 2.12244 16.9732 2.18808 17.1006 2.25488C17.1271 2.26883 17.1542 2.28175 17.1807 2.2959C17.2948 2.35696 17.4069 2.4214 17.5186 2.48633C17.56 2.51046 17.6024 2.53297 17.6436 2.55762C17.7712 2.63409 17.8963 2.71446 18.0205 2.7959C18.0389 2.80793 18.0579 2.81891 18.0762 2.83105C18.1896 2.9064 18.3007 2.98506 18.4111 3.06445C18.4462 3.08967 18.4818 3.11403 18.5166 3.13965C21.2351 5.14239 23 8.36442 23 12C23 18.0751 18.0751 23 12 23C8.49547 23 5.37669 21.3588 3.3623 18.8057C3.34766 18.7871 3.33289 18.7687 3.31836 18.75C3.2219 18.6261 3.1283 18.5001 3.03711 18.3721C3.02615 18.3567 3.01479 18.3416 3.00391 18.3262C2.91601 18.2014 2.83081 18.0748 2.74805 17.9463C2.73005 17.9184 2.71209 17.8904 2.69434 17.8623C2.61223 17.7322 2.53279 17.6005 2.45605 17.4668C2.44334 17.4447 2.43053 17.4226 2.41797 17.4004C2.34983 17.2798 2.28436 17.1576 2.2207 17.0342C2.19907 16.9923 2.17736 16.9504 2.15625 16.9082C2.09937 16.7943 2.04422 16.6795 1.99121 16.5635C1.96869 16.5142 1.94662 16.4647 1.9248 16.415C1.86934 16.2887 1.81642 16.161 1.76562 16.0322C1.75178 15.9972 1.7381 15.962 1.72461 15.9268C1.67427 15.7951 1.62643 15.6623 1.58105 15.5283C1.56772 15.489 1.55392 15.4497 1.54102 15.4102C1.49914 15.2816 1.46007 15.152 1.42285 15.0215C1.40867 14.9718 1.39436 14.9221 1.38086 14.8721C1.34859 14.7525 1.31931 14.6319 1.29102 14.5107C1.2772 14.4516 1.26286 14.3925 1.25 14.333C1.22227 14.2046 1.19801 14.0753 1.1748 13.9453C1.16586 13.8952 1.15573 13.8453 1.14746 13.7949C1.12674 13.6687 1.10916 13.5417 1.09277 13.4141C1.0873 13.3714 1.08018 13.3289 1.0752 13.2861L1.07617 13.2852C1.0271 12.8635 1 12.4348 1 12C1 10.8348 1.18187 9.71214 1.51758 8.6582C1.57842 8.46719 1.64596 8.2791 1.7168 8.09277C1.76705 7.96058 1.8179 7.82891 1.87305 7.69922C1.9122 7.60712 1.95452 7.51657 1.99609 7.42578C2.02894 7.35407 2.0604 7.28181 2.09473 7.21094C2.14199 7.11334 2.19312 7.01784 2.24316 6.92188C2.27888 6.8534 2.31348 6.78442 2.35059 6.7168C2.39663 6.63286 2.44501 6.55036 2.49316 6.46777C2.53679 6.39297 2.57967 6.31781 2.625 6.24414C2.6759 6.1614 2.72922 6.08029 2.78223 5.99902C2.82922 5.92699 2.87619 5.85503 2.9248 5.78418C2.97819 5.70637 3.03355 5.63006 3.08887 5.55371C3.14108 5.48166 3.19317 5.40959 3.24707 5.33887C3.29809 5.27191 3.35081 5.20636 3.40332 5.14062C3.46949 5.05781 3.53601 4.97537 3.60449 4.89453C3.65104 4.83958 3.6985 4.78547 3.74609 4.73145C3.81636 4.65171 3.88744 4.57277 3.95996 4.49512C4.01638 4.43468 4.0731 4.37458 4.13086 4.31543C4.19874 4.24593 4.2682 4.17804 4.33789 4.11035C4.39768 4.05227 4.45746 3.99423 4.51855 3.9375C4.59103 3.87022 4.66498 3.80459 4.73926 3.73926C4.8032 3.683 4.86737 3.62705 4.93262 3.57227C5.00068 3.51513 5.0702 3.4598 5.13965 3.4043C5.21696 3.3425 5.29405 3.28044 5.37305 3.2207C5.43848 3.17123 5.5057 3.1242 5.57227 3.07617C5.65172 3.01883 5.73049 2.96052 5.81152 2.90527C5.87193 2.86409 5.93385 2.82516 5.99512 2.78516C6.08715 2.72505 6.17854 2.66384 6.27246 2.60645C6.33304 2.56943 6.39569 2.53587 6.45703 2.5C6.55303 2.44386 6.64827 2.38629 6.74609 2.33301C6.78494 2.31185 6.82513 2.29316 6.86426 2.27246C6.97778 2.2124 7.0912 2.15186 7.20703 2.0957H7.20898C8.5923 1.42532 10.1372 1.03942 11.7695 1.00586L11.7705 1.00293C11.8467 1.00137 11.9234 1 12 1ZM6.63379 17.9453L6.9375 20.0371C8.40334 20.9624 10.1384 21.5 12 21.5C12.8708 21.5 13.7134 21.3796 14.5146 21.1602L14.1621 18.5605L10.377 16.7627L6.63379 17.9453ZM15.6338 18.2549L15.957 20.6357C18.3814 19.523 20.2574 17.4224 21.0654 14.8467L18.7393 14.7568L15.6338 18.2549ZM2.78125 9.70215C2.59842 10.4381 2.5 11.2075 2.5 12C2.5 12.4951 2.53735 12.9814 2.61035 13.4561L5.93555 16.5938L9.59961 15.4365L10.083 11.3535L6.71777 8.36719L2.78125 9.70215ZM17.2354 5.64062L16.7197 9.32324L18.8633 13.2617L21.4014 13.3594C21.465 12.9153 21.5 12.4617 21.5 12C21.5 9.55406 20.5751 7.32449 19.0566 5.64062H17.2354ZM12 2.5C10.8016 2.5 9.65549 2.72299 8.59961 3.12793L7.71094 7.24219L10.9971 10.1592L15.25 9.00293L15.7676 5.29883L12.3057 2.50781C12.2041 2.5046 12.1023 2.5 12 2.5Z" fill="currentColor"/>
</svg>
