<svg width="16" height="16" viewBox="0 0 16 16" fill="none" xmlns="http://www.w3.org/2000/svg">
<path fill-rule="evenodd" clip-rule="evenodd" d="M8 1C8.20802 1 8.41378 1.01055 8.61719 1.02832C8.64747 1.03097 8.67784 1.03212 8.70801 1.03516C8.74526 1.0389 8.78225 1.0445 8.81934 1.04883C9.13407 1.08557 9.44263 1.14164 9.74316 1.21875C9.92397 1.26509 10.1015 1.31977 10.2764 1.37988C10.3132 1.39256 10.3502 1.4047 10.3867 1.41797C10.4689 1.44779 10.5501 1.47991 10.6309 1.5127C10.6504 1.52062 10.67 1.52804 10.6895 1.53613C10.9793 1.65686 11.2588 1.79708 11.5273 1.9541C11.5485 1.96648 11.5698 1.97861 11.5908 1.99121C11.6671 2.03688 11.7421 2.08436 11.8164 2.13281C11.8336 2.14401 11.8511 2.15467 11.8682 2.16602C13.7555 3.41989 15 5.5643 15 8C15 11.866 11.866 15 8 15C5.64784 15 3.56806 13.8389 2.29883 12.0596C2.28933 12.0463 2.27991 12.0329 2.27051 12.0195C2.21508 11.9407 2.16158 11.8605 2.10938 11.7793C2.09931 11.7637 2.08904 11.7481 2.0791 11.7324C2.02898 11.6531 1.98057 11.5727 1.93359 11.4912C1.92397 11.4745 1.91379 11.4582 1.9043 11.4414C1.79966 11.2565 1.70402 11.066 1.61621 10.8711C1.60987 10.857 1.60293 10.8432 1.59668 10.8291C1.55877 10.7434 1.52281 10.6568 1.48828 10.5693C1.47889 10.5456 1.4691 10.5219 1.45996 10.498C1.38599 10.3045 1.32149 10.1066 1.26465 9.90527C1.25802 9.88179 1.25053 9.85854 1.24414 9.83496C1.22166 9.752 1.20209 9.66814 1.18262 9.58398C1.1753 9.5524 1.16704 9.52101 1.16016 9.48926C1.1432 9.41101 1.12857 9.33213 1.11426 9.25293C1.10697 9.21264 1.09937 9.17237 1.09277 9.13184C1.08092 9.05894 1.07013 8.98574 1.06055 8.91211C1.05649 8.88091 1.0515 8.84969 1.04785 8.81836L1.04883 8.81738C1.01763 8.54919 1 8.27656 1 8C1 7.02753 1.19827 6.10137 1.55664 5.25977C1.56961 5.22931 1.58329 5.19918 1.59668 5.16895C1.62703 5.1004 1.65796 5.03221 1.69043 4.96484L1.71289 4.91992C1.72271 4.89992 1.73316 4.88025 1.74316 4.86035C1.7816 4.7839 1.8202 4.70763 1.86133 4.63281C1.89029 4.58012 1.92091 4.52842 1.95117 4.47656C1.97872 4.42938 2.00655 4.38241 2.03516 4.33594C2.06495 4.28753 2.09603 4.24 2.12695 4.19238C2.15963 4.14208 2.19166 4.09139 2.22559 4.04199C2.259 3.99333 2.2945 3.9462 2.3291 3.89844C2.36587 3.84769 2.40235 3.79678 2.44043 3.74707C2.46681 3.71263 2.49351 3.67846 2.52051 3.64453C2.56317 3.59093 2.6062 3.53766 2.65039 3.48535C2.68375 3.44585 2.71774 3.40691 2.75195 3.36816C2.80017 3.31358 2.84955 3.26008 2.89941 3.20703C2.92276 3.18219 2.94603 3.15731 2.96973 3.13281C3.02784 3.07276 3.08724 3.014 3.14746 2.95605C3.17368 2.93082 3.19996 2.90568 3.22656 2.88086C3.27982 2.83118 3.33389 2.78239 3.38867 2.73438C3.42513 2.70242 3.46191 2.67085 3.49902 2.63965C3.54436 2.60154 3.59041 2.56431 3.63672 2.52734C3.68434 2.48932 3.73165 2.45086 3.78027 2.41406C3.81687 2.38637 3.85445 2.35999 3.8916 2.33301C3.94997 2.29061 4.00865 2.24862 4.06836 2.20801C4.10933 2.18014 4.15079 2.15299 4.19238 2.12598C4.24439 2.09219 4.29666 2.05879 4.34961 2.02637C4.39525 1.99842 4.44196 1.97224 4.48828 1.94531C4.54385 1.91301 4.59875 1.87944 4.65527 1.84863C5.60854 1.32921 6.69624 1.02683 7.85254 1.00293L7.85352 1.00195C7.90201 1.00096 7.95126 1 8 1ZM4.60254 11.9062L4.73145 12.791C5.6622 13.4272 6.78745 13.7998 8 13.7998C8.49943 13.7998 8.9839 13.7359 9.44629 13.6172L9.24219 12.1123L7.12891 11.1084L4.60254 11.9062ZM10.4199 11.8594L10.5996 13.1836C11.933 12.5136 12.9716 11.3459 13.4717 9.92285L12.1836 9.87305L10.4199 11.8594ZM2.41309 6.44238C2.27518 6.93814 2.2002 7.46028 2.2002 8C2.2002 8.41605 2.24488 8.82167 2.32812 9.21289L4.03809 10.8262L6.48926 10.0518L6.7627 7.73633L4.50391 5.7334L2.41309 6.44238ZM11.4551 3.95312L11.1016 6.47656L12.2988 8.67578L13.752 8.73242C13.7822 8.49246 13.7998 8.24818 13.7998 8C13.7998 6.42545 13.1717 4.99817 12.1533 3.95312H11.4551ZM8 2.2002C7.2107 2.2002 6.45832 2.35802 5.77246 2.64355L5.2998 4.83496L7.50293 6.79004L9.93848 6.12695L10.2852 3.64551L8.52441 2.22461C8.35165 2.20912 8.1768 2.2002 8 2.2002Z" fill="currentColor"/>
</svg>
