<svg width="24" height="24" viewBox="0 0 24 24" fill="none" xmlns="http://www.w3.org/2000/svg">
<path fill-rule="evenodd" clip-rule="evenodd" d="M10.9079 1C14.8179 1 18.196 3.26517 19.8075 6.55105C20.0678 6.7176 20.3036 6.92227 20.5014 7.16154C21.8341 7.3855 22.9701 8.49524 22.9733 10.0055L23 17.3345V17.341C23 20.4479 20.4944 22.9998 17.3602 23C16.2048 23 15.1503 22.948 14.1335 22.5841C13.0902 22.2106 12.3559 21.6673 11.4717 20.8157H11.2436L10.9079 20.8157C5.43578 20.8157 1 16.3799 1 10.9079C1 5.43578 5.43578 1 10.9079 1ZM16.4065 7.24921C15.7371 7.24934 15.1946 7.76111 15.1941 8.39214V8.45415C15.0237 8.36789 14.8269 8.31958 14.62 8.31943C13.9508 8.31956 13.4074 8.83065 13.4065 9.46129L13.4332 16.4375L11.915 15.4069C11.4566 14.9486 10.7143 14.9489 10.2557 15.4069C9.79715 15.8655 9.79718 16.6087 10.2557 17.0673L12.5704 19.4461C14.1933 21.0122 15.0951 21.2476 17.3602 21.2477C19.4477 21.2475 21.1397 19.6008 21.2434 17.542L21.2487 17.341L21.222 10.0119C21.2218 9.3807 20.677 8.86809 20.0074 8.86791C19.7859 8.86809 19.5777 8.92394 19.3991 9.02187V8.96627C19.3988 8.33517 18.854 7.82259 18.1845 7.82228C17.949 7.82241 17.7291 7.8869 17.543 7.99655C17.3719 7.56108 16.9279 7.24957 16.4065 7.24921ZM8.42314 15.0273C7.20826 15.3854 5.90356 15.6824 4.48117 15.9275C5.73111 17.5256 7.56353 18.6425 9.65909 18.965L9.01759 18.3053C9.01475 18.3025 9.01187 18.2996 9.00904 18.2968L9.00049 18.2893L9.00155 18.2882C8.12884 17.4016 7.93687 16.0987 8.42314 15.0273ZM12.2496 2.86247C11.2986 4.98728 10.1959 6.59019 8.68188 7.93882C7.15272 9.3009 5.24636 10.364 2.77266 11.467C2.84112 12.4779 3.09296 13.4377 3.49648 14.3142C6.82599 13.7937 9.41354 13.0203 11.6627 11.8883L11.6541 9.46878V9.46022C11.6556 7.97155 12.7566 6.86998 14.0619 6.62162C14.6211 5.92308 15.4933 5.49811 16.4065 5.49793C16.6345 5.49803 16.8584 5.5245 17.0747 5.57384C15.8561 4.16674 14.1664 3.17974 12.2496 2.86247ZM10.3605 2.77159C6.58568 3.02179 3.5145 5.83829 2.8753 9.49337C4.86334 8.56091 6.33932 7.67975 7.5165 6.63124C8.66449 5.60867 9.56119 4.40112 10.3605 2.77159Z" fill="currentColor"/>
</svg>
