<svg width="16" height="16" viewBox="0 0 16 16" fill="none" xmlns="http://www.w3.org/2000/svg">
<path fill-rule="evenodd" clip-rule="evenodd" d="M7.34693 1.10083C9.72779 1.10083 11.7974 2.42991 12.8566 4.38377C13.0685 4.49731 13.2617 4.645 13.4235 4.82435C14.3149 5.01424 15.0644 5.77361 15.0665 6.80446L15.0834 11.3495V11.3544C15.0833 13.4107 13.4243 15.1007 11.3479 15.1008C10.6284 15.1008 9.93826 15.0698 9.26637 14.8293C8.57046 14.5801 8.01923 14.1543 7.45732 13.612L7.34693 13.6279C3.88788 13.6279 1.08337 10.8234 1.08337 7.36438C1.08337 3.90534 3.88788 1.10083 7.34693 1.10083ZM10.7562 5.09586C10.3411 5.09616 10.0044 5.41362 10.0043 5.80496V5.84275C9.89865 5.78932 9.77654 5.76026 9.64827 5.7602C9.23333 5.7605 8.89573 6.07714 8.89541 6.46831L8.91232 10.7935L7.97149 10.154C7.68712 9.86989 7.22551 9.86985 6.94116 10.154C6.65725 10.4383 6.6574 10.9 6.94116 11.1844L8.37726 12.6593C9.25778 13.509 9.79619 13.7278 10.8576 13.7692L11.3479 13.7771C12.6008 13.777 13.6239 12.8201 13.7467 11.6011L13.7587 11.3544L13.7427 6.80844C13.7425 6.41714 13.405 6.10055 12.9899 6.10033C12.8524 6.10048 12.7228 6.13493 12.612 6.19581V6.16001C12.6118 5.76868 12.2742 5.45209 11.8591 5.4519C11.7132 5.45204 11.5766 5.49135 11.4613 5.55931C11.3552 5.28915 11.0796 5.09599 10.7562 5.09586ZM5.47721 10.1322C4.88146 10.2943 4.25228 10.4369 3.58064 10.5578C4.2064 11.2951 5.04446 11.8456 6.00033 12.1162L5.99237 12.1083L5.99337 12.1073C5.46484 11.5694 5.29354 10.8127 5.47721 10.1322ZM8.24697 2.51008C7.66074 3.79653 6.97914 4.78081 6.04608 5.61202C5.10029 6.45448 3.92806 7.11192 2.42599 7.78606C2.47245 8.33554 2.60923 8.85905 2.82082 9.3425C4.74422 9.03563 6.25848 8.5901 7.57666 7.95414L7.57169 6.47328V6.46632C7.57275 5.45194 8.29717 4.70146 9.16791 4.49516C9.5566 4.0484 10.1338 3.77977 10.7343 3.77313C10.0568 3.13522 9.20014 2.68567 8.24697 2.51008ZM6.80491 2.45439C4.6947 2.68471 2.98483 4.2446 2.52843 6.27835C3.64827 5.73972 4.48886 5.22565 5.16493 4.62346C5.81861 4.04119 6.33886 3.35891 6.80491 2.45439Z" fill="currentColor"/>
</svg>
