<svg width="16" height="16" viewBox="0 0 16 16" fill="none" xmlns="http://www.w3.org/2000/svg">
<path d="M7.98925 1.32807C9.17234 0.894903 10.4758 0.809093 11.418 1.58393L11.6016 1.75092L14.1123 4.26264C15.078 5.22858 15.1685 6.67917 14.7939 8.05268C14.4129 9.44982 13.5182 10.9407 12.2295 12.2294C10.9407 13.5182 9.44986 14.4129 8.05273 14.7939C6.67921 15.1684 5.22862 15.078 4.26269 14.1123L1.75097 11.6015C0.799646 10.6502 0.866048 9.25121 1.32812 7.98921C1.80243 6.69395 2.76557 5.29688 4.03124 4.0312C5.29692 2.76552 6.694 1.80237 7.98925 1.32807ZM12.4473 4.71772C12.4128 4.99244 12.3576 5.26894 12.2832 5.54194C11.9021 6.939 11.0065 8.42903 9.71777 9.71772C8.42908 11.0064 6.93904 11.9021 5.54199 12.2832C5.26898 12.3576 4.99248 12.4127 4.71777 12.4472L5.32324 13.0517C5.74432 13.4726 6.5324 13.6546 7.6582 13.3476C8.76062 13.047 10.0306 12.3073 11.1689 11.1689C12.3073 10.0305 13.047 8.76058 13.3476 7.65815C13.6546 6.53236 13.4727 5.74427 13.0518 5.32319L12.4473 4.71772ZM10.541 2.81147C10.2149 2.48531 9.57152 2.34574 8.50488 2.73628C7.47161 3.11465 6.25312 3.93041 5.09179 5.09174C3.93046 6.25308 3.1147 7.47155 2.73632 8.50483C2.37017 9.50485 2.47026 10.1323 2.75292 10.4755L2.81152 10.541L2.89452 10.6162C3.33217 10.9821 4.09153 11.1239 5.14745 10.8359C6.24978 10.5352 7.519 9.79539 8.65722 8.65717C9.79544 7.51895 10.5352 6.24974 10.8359 5.14741C11.1239 4.09149 10.9821 3.33213 10.6162 2.89448L10.541 2.81147Z" fill="currentColor"/>
</svg>
