<svg width="24" height="24" viewBox="0 0 24 24" fill="none" xmlns="http://www.w3.org/2000/svg">
<path d="M12.0127 2.4669C13.8193 1.80555 15.7925 1.72161 17.1289 3.05772L20.7461 6.67393L20.8701 6.80381C22.1155 8.16436 22.2261 10.1524 21.707 12.0558C21.1626 14.0518 19.8809 16.1856 18.0332 18.0333C16.1855 19.881 14.0517 21.1627 12.0557 21.7071C10.0909 22.2429 8.03575 22.1078 6.67382 20.7462L3.05761 17.129C1.72151 15.7926 1.80544 13.8194 2.46679 12.0128C3.14463 10.1615 4.52368 8.15806 6.34081 6.34092C8.15796 4.52377 10.1614 3.14472 12.0127 2.4669ZM18.3418 7.09971C18.2957 7.54449 18.2111 7.9939 18.0898 8.43857C17.5455 10.4347 16.2648 12.5693 14.417 14.4171C12.5692 16.2649 10.4346 17.5465 8.43847 18.0909C7.99387 18.2121 7.54431 18.2958 7.0996 18.3419L8.08886 19.3312C8.72431 19.9664 9.89472 20.2232 11.5293 19.7774C13.1325 19.3402 14.9719 18.2664 16.6191 16.6192C18.2663 14.972 19.3401 13.1326 19.7773 11.5294C20.2231 9.89474 19.9663 8.72342 19.331 8.08799L18.3418 7.09971ZM15.7148 4.47178C15.2118 3.96906 14.246 3.77893 12.7002 4.34483C11.1982 4.89474 9.43388 6.07793 7.75585 7.75596C6.07784 9.43397 4.89465 11.1983 4.34472 12.7003C3.77881 14.2461 3.96896 15.2119 4.47167 15.7149C5.1071 16.3502 6.27843 16.607 7.91308 16.1612C9.51623 15.724 11.3558 14.6502 13.0029 13.003C14.6501 11.3559 15.7239 9.51633 16.1611 7.91318C16.6069 6.27853 16.3501 5.1072 15.7148 4.47178Z" fill="currentColor"/>
</svg>
