<svg width="16" height="16" viewBox="0 0 16 16" fill="none" xmlns="http://www.w3.org/2000/svg">
<path d="M10.2075 8.40496C10.4293 8.63961 10.4294 9.01953 10.2075 9.25407L9.67159 9.82038C9.44965 10.0549 9.08948 10.0554 8.86743 9.82107L6.13826 6.93699C5.91627 6.70236 5.9169 6.3218 6.13892 6.08719L6.67481 5.52088C6.89682 5.28626 7.25628 5.28629 7.47831 5.52088L10.2075 8.40496Z" fill="currentColor"/>
<path fill-rule="evenodd" clip-rule="evenodd" d="M14.5352 5.27265C15.222 6.08219 15.2526 7.29621 14.6261 8.15534L11.2923 11.6783L10.9266 12.0331C10.7105 12.2298 10.4277 12.4656 10.161 12.6208L9.89799 12.7605C9.33812 13.0301 8.9279 13.0301 8.58608 12.887L6.82268 14.7505L6.75071 14.8196C6.40347 15.1188 5.90189 15.1187 5.55461 14.8196L5.48263 14.7505L1.35191 10.3853L1.28647 10.3092C1.00343 9.94224 1.00339 9.41223 1.28647 9.04525L1.35191 8.96919L3.13886 7.08081C2.80429 6.38157 2.95651 5.83006 3.23831 4.94835C3.24364 4.9314 3.42088 4.36878 3.65119 3.92845L3.75392 3.74659C3.93994 3.44746 4.00515 3.33223 4.22437 3.08348L4.50508 2.77855C5.52605 1.69969 6.33683 0.843456 7.63731 2.11267L7.7649 2.24198L8.39698 1.57402C9.10503 0.934069 10.203 0.83476 10.9456 1.49036L11.0895 1.63142L14.5352 5.27265ZM2.69195 9.67725L6.15266 13.3344L7.48355 11.9279L4.04444 8.29364L4.0235 8.27012L2.69195 9.67725ZM10.0668 2.67483C9.99309 2.59415 9.89277 2.54515 9.75338 2.54553C9.60851 2.54593 9.4561 2.60429 9.3392 2.70249L7.7649 4.36614L6.75987 3.30406C6.58469 3.11897 6.46639 3.03762 6.40588 3.00189C6.36057 3.0287 6.28362 3.07986 6.17098 3.17821C5.98562 3.34008 5.78548 3.54965 5.51011 3.84063C5.27984 4.08397 5.20294 4.17541 5.15874 4.23407C5.11181 4.29641 5.08657 4.33998 4.94216 4.5722C4.8794 4.67326 4.79151 4.86334 4.70661 5.08388C4.66836 5.18325 4.63708 5.27213 4.61566 5.33488C4.60515 5.36564 4.59767 5.38965 4.59276 5.40471C4.59042 5.41188 4.58842 5.4171 4.58752 5.41993L4.5849 5.42961C4.35109 6.16121 4.36241 6.263 4.37029 6.30914C4.37289 6.32433 4.39647 6.45703 4.67062 6.80077L9.09187 11.473C9.14652 11.4608 9.26917 11.4242 9.4753 11.3043C9.61086 11.2253 9.80474 11.0715 9.99875 10.8949C10.0876 10.814 10.1635 10.7411 10.216 10.6889C10.242 10.663 10.2619 10.6428 10.2742 10.6301L13.5301 7.18937C13.7099 6.90147 13.6855 6.5331 13.485 6.28702L10.0668 2.67483Z" fill="currentColor"/>
</svg>
