<svg width="24" height="24" viewBox="0 0 24 24" fill="none" xmlns="http://www.w3.org/2000/svg">
<path d="M15.3588 12.2809C15.728 12.6713 15.7282 13.3043 15.3588 13.6945L14.6151 14.48C14.2456 14.87 13.6463 14.87 13.2768 14.48L9.29645 10.2757C8.92696 9.88546 8.92713 9.25249 9.29645 8.8621L10.0401 8.0766C10.4097 7.68624 11.0089 7.68624 11.3784 8.0766L15.3588 12.2809Z" fill="currentColor"/>
<path fill-rule="evenodd" clip-rule="evenodd" d="M21.2375 7.96547C22.2106 9.11193 22.2544 10.8309 21.3669 12.0476L16.6422 17.0381L16.4984 17.1844C16.2249 17.4566 15.6065 18.042 15.0399 18.3717L14.8497 18.4773C13.9622 18.95 13.33 18.9658 12.8096 18.7478L10.0297 21.6842C9.66016 22.0744 9.06091 22.0743 8.69132 21.6842L2.27873 14.9107L2.21339 14.8348C1.91039 14.4422 1.93232 13.863 2.27873 13.4971L5.09065 10.527C4.6161 9.53676 4.83188 8.75586 5.23115 7.50715C5.23115 7.50715 5.48531 6.69498 5.81667 6.06177L5.9624 5.80431C6.3138 5.23949 6.36025 5.13693 7.02691 4.43278C8.52038 2.85536 9.696 1.61411 11.6457 3.67351L12.541 2.72787C13.611 1.76122 15.3097 1.66479 16.3553 2.80863L21.2375 7.96547ZM4.28622 14.2039L9.36049 19.5637L11.3314 17.4819L11.2209 17.3639L6.37409 12.2443L6.26038 12.1187L4.28622 14.2039ZM14.9935 4.19741C14.8639 4.05568 14.6892 3.97523 14.4622 3.97584C14.2327 3.97649 13.9923 4.06518 13.8061 4.21881L11.6457 6.50077L10.3074 5.08714C9.99112 4.75309 9.79649 4.63956 9.72055 4.60396C9.65783 4.63376 9.5275 4.71111 9.31017 4.90077C9.0422 5.13464 8.75446 5.43531 8.36524 5.84641C8.03771 6.19235 7.92464 6.32671 7.85749 6.41587C7.7867 6.50984 7.74721 6.57663 7.54447 6.90249C7.44885 7.05621 7.32126 7.33541 7.20009 7.65003C7.14514 7.79269 7.10017 7.92024 7.06939 8.01034C7.05422 8.05474 7.04253 8.08928 7.03541 8.11111C7.03186 8.12199 7.02952 8.12982 7.02822 8.13389V8.13527L7.0243 8.14632L6.83414 8.77099C6.69703 9.25948 6.702 9.37828 6.7152 9.45572C6.71879 9.47669 6.73043 9.52533 6.7714 9.61309L13.6257 16.8531C13.7303 16.8207 13.8941 16.7559 14.127 16.6205C14.3302 16.5022 14.6127 16.2767 14.8896 16.0248C15.0168 15.909 15.1253 15.8043 15.2006 15.7294C15.238 15.6922 15.2663 15.6623 15.2843 15.6438C15.2931 15.6347 15.2999 15.6286 15.3032 15.6252L19.9188 10.7499C20.1999 10.2976 20.162 9.71464 19.8456 9.3225L14.9935 4.19741Z" fill="currentColor"/>
</svg>
