<svg width="16" height="16" viewBox="0 0 16 16" fill="none" xmlns="http://www.w3.org/2000/svg">
<path d="M12.4277 2.78125C14.0762 3.80176 15.0973 5.66296 14.9922 7.81152C14.8827 10.0406 13.5802 11.9742 11.8379 13.0625C10.2253 14.0693 8.1777 14.3828 6.28711 13.4912L3.87109 15.918L3.78906 16L3.75391 15.9648L3.70605 15.918L1.08691 13.2891L1.03613 13.2383L1 13.2031L1.03613 13.168L1.08691 13.1162L3.5 10.6934C2.55268 8.66457 2.97902 6.46059 4.14844 4.79785L4.21777 4.69824L4.21875 4.69531C4.40434 5.18603 4.67835 5.6332 5.02246 6.0166L5.01953 6.02344C4.2359 7.38714 4.10562 9.02877 4.9541 10.4697L5.22949 10.9385L2.9707 13.2021L3.78809 14.0205L6.04785 11.7568L6.51074 12.0322C8.00621 12.9184 9.71372 12.7413 11.1055 11.8721C12.5056 10.9974 13.5182 9.45933 13.6025 7.74219C13.671 6.34116 13.1179 5.13732 12.2041 4.34766C12.306 3.98507 12.3623 3.60316 12.3623 3.20801C12.3623 3.04347 12.3514 2.8813 12.333 2.72168L12.4277 2.78125Z" fill="currentColor"/>
<path fill-rule="evenodd" clip-rule="evenodd" d="M8.14941 0C9.91116 0.00244257 11.3432 1.43589 11.3438 3.20996C11.3438 4.4543 10.6387 5.53082 9.61035 6.06445C9.17342 6.28744 8.67949 6.41499 8.15527 6.41504L7.99023 6.41113C6.34999 6.32816 5.03445 5.01322 4.95117 3.37305L4.94727 3.20801C4.94727 1.4384 6.38054 0.00316314 8.14941 0ZM8.14453 1.40039C7.14472 1.40067 6.33841 2.21308 6.33789 3.20996C6.33789 4.2073 7.14441 5.0212 8.14453 5.02148C9.14489 5.02148 9.95117 4.20747 9.95117 3.20996C9.95065 2.21291 9.14458 1.40039 8.14453 1.40039Z" fill="currentColor"/>
</svg>
