<svg width="24" height="24" viewBox="0 0 24 24" fill="none" xmlns="http://www.w3.org/2000/svg">
<path d="M18.328 4.84217C20.6812 6.24254 22.1397 8.79769 21.9894 11.7498C21.833 14.8128 19.9722 17.4713 17.479 18.9685C15.1592 20.3614 12.2128 20.7903 9.50121 19.5414L5.98553 22.9343L5.91703 23L5.84853 22.9343L2.07429 19.2921L2 19.2216L2.07429 19.1501L5.58611 15.761C4.20542 12.9646 4.81076 9.91728 6.49301 7.61778L6.59431 7.47962L6.66377 7.63613C6.9029 8.17993 7.22638 8.68084 7.61795 9.12489L7.66618 9.17899L7.62856 9.24179C6.48844 11.1489 6.29616 13.4483 7.53401 15.4693L7.86204 16.0054L7.90352 16.074L7.8466 16.1291L4.63772 19.2206L5.91606 20.4534L9.18379 17.3048L9.24747 17.3416L9.80222 17.6584C11.9842 18.9019 14.4735 18.6517 16.4978 17.4362C18.5332 16.214 20.0064 14.0647 20.1293 11.6609C20.23 9.682 19.4106 7.98045 18.056 6.87291L18.0077 6.83234L18.0232 6.77147C18.1374 6.32558 18.1987 5.85915 18.1987 5.37933C18.1987 5.23043 18.1911 5.08243 18.1795 4.93492L18.165 4.7446L18.328 4.84217Z" fill="currentColor"/>
<path fill-rule="evenodd" clip-rule="evenodd" d="M12.1939 1C14.6963 1 16.7311 2.95698 16.7313 5.37933C16.7313 7.80184 14.6965 9.75962 12.1939 9.75962C9.69148 9.75951 7.65654 7.80178 7.65654 5.37933C7.65674 2.95704 9.6916 1.00011 12.1939 1ZM12.1939 2.80274C10.713 2.80285 9.51878 3.9599 9.51857 5.37933C9.51857 6.79892 10.7129 7.95677 12.1939 7.95688C13.6751 7.95688 14.8693 6.79898 14.8693 5.37933C14.8691 3.95984 13.675 2.80274 12.1939 2.80274Z" fill="currentColor"/>
</svg>
