<svg width="16" height="16" viewBox="0 0 16 16" fill="none" xmlns="http://www.w3.org/2000/svg">
<path d="M9.74282 3.41952C10.1454 3.22219 10.631 3.38995 10.8274 3.79476C11.0114 4.17467 10.876 4.62895 10.5264 4.84676L10.4538 4.88661L10.2412 4.99353C9.94486 5.14641 9.3884 4.94618 9.25565 4.63888C9.40835 4.89665 9.30996 5.48086 9.08138 5.67362L9.01537 5.72409L8.62788 6.00037C8.38664 6.17998 7.84769 6.12818 7.60799 5.91271C7.79176 6.17197 7.75738 6.71302 7.54132 6.92154C7.48452 6.97628 7.42764 7.03193 7.37167 7.08824C7.31362 7.14664 7.25651 7.20571 7.20004 7.2649C6.94944 7.52754 6.35088 7.52754 6.10028 7.2649C6.3842 7.49056 6.46369 8.10317 6.24683 8.39461C6.14781 8.52756 6.05176 8.66177 5.95967 8.79641C5.77136 9.07145 5.24312 9.14143 4.93649 8.97905C5.2144 9.18943 5.35376 9.76938 5.20054 10.0656C5.16262 10.1388 5.12559 10.2123 5.08964 10.2854C4.89087 10.6893 4.40388 10.8546 4.00242 10.6547C3.60116 10.4546 3.43738 9.96534 3.63605 9.5615C3.67695 9.47837 3.71841 9.39494 3.76148 9.31178C3.94459 8.9583 4.50979 8.74594 4.86058 8.93123C4.53274 8.70753 4.39905 8.19892 4.62359 7.8706C4.72783 7.71819 4.83629 7.56683 4.94837 7.41632C5.18601 7.09723 5.7891 7.01797 6.10028 7.2649C5.79219 7.01386 5.75517 6.42235 6.02965 6.13453C6.09373 6.06736 6.15849 6.00026 6.22438 5.93396C6.28853 5.86942 6.3534 5.80605 6.41846 5.74335C6.68469 5.48679 7.30594 5.5522 7.54132 5.83766C7.34232 5.56871 7.35182 4.96772 7.59809 4.74182L7.66278 4.68803C7.73572 4.6337 7.80913 4.58036 7.8826 4.52797L8.1044 4.37323C8.40883 4.16561 9.07156 4.31853 9.25565 4.63888C9.03169 4.34531 9.17333 3.71007 9.50056 3.54106L9.74282 3.41952Z" fill="currentColor"/>
<path fill-rule="evenodd" clip-rule="evenodd" d="M4.21894 4.15273C7.65066 0.700392 12.909 0.393322 14.2561 1.74854C15.6029 3.10406 15.2977 8.39431 11.8664 11.8468C8.43484 15.2993 3.176 15.6068 1.82865 14.2517C0.290408 12.704 0.787219 7.60536 4.21894 4.15273ZM12.4071 2.41268C11.8374 2.32925 11.0933 2.33827 10.2538 2.48706C8.57114 2.78537 6.66494 3.61532 5.17479 5.11441C3.66614 6.63225 2.80241 8.51732 2.48811 10.1718C2.33117 10.9983 2.31836 11.729 2.40625 12.2964C2.49757 12.8856 2.67621 13.181 2.7845 13.29C2.82351 13.329 3.06705 13.4974 3.67764 13.5869C4.24735 13.6703 4.99187 13.662 5.83161 13.5131C7.51424 13.2148 9.4205 12.3843 10.9106 10.8851C12.4006 9.38592 13.2255 7.46809 13.522 5.77523C13.6699 4.93049 13.6789 4.18192 13.5959 3.6088C13.507 2.99445 13.339 2.74946 13.3002 2.71021C13.2617 2.67149 13.0183 2.50228 12.4071 2.41268Z" fill="currentColor"/>
</svg>
