<svg width="24" height="24" viewBox="0 0 24 24" fill="none" xmlns="http://www.w3.org/2000/svg">
<path d="M14.4898 5.45645C15.0649 5.17456 15.7586 5.41421 16.0392 5.99251C16.3021 6.53524 16.1087 7.18421 15.6092 7.49537L15.5054 7.5523L15.2018 7.70505C14.7784 7.92344 13.9835 7.63741 13.7938 7.1984C14.012 7.56664 13.8714 8.40122 13.5449 8.67659L13.4506 8.7487L12.897 9.14339C12.5524 9.39997 11.7825 9.32597 11.44 9.01815C11.7026 9.38852 11.6534 10.1615 11.3448 10.4593C11.2636 10.5375 11.1824 10.617 11.1024 10.6975C11.0195 10.7809 10.9379 10.8653 10.8572 10.9499C10.4992 11.3251 9.64417 11.3251 9.28616 10.9499C9.69177 11.2722 9.80532 12.1474 9.49552 12.5637C9.35407 12.7537 9.21684 12.9454 9.0853 13.1377C8.81627 13.5306 8.06165 13.6306 7.62361 13.3986C8.02062 13.6992 8.2197 14.5277 8.00082 14.9508C7.94665 15.0554 7.89375 15.1605 7.84239 15.2649C7.55844 15.8418 6.86273 16.078 6.28922 15.7924C5.716 15.5066 5.48203 14.8076 5.76584 14.2307C5.82427 14.112 5.88349 13.9928 5.94502 13.874C6.2066 13.369 7.01403 13.0656 7.51516 13.3303C7.04682 13.0108 6.85584 12.2842 7.17661 11.8151C7.32552 11.5974 7.48047 11.3812 7.64058 11.1662C7.98006 10.7103 8.84162 10.5971 9.28616 10.9499C8.84604 10.5912 8.79315 9.74621 9.18526 9.33504C9.2768 9.23909 9.36932 9.14322 9.46345 9.04851C9.5551 8.95631 9.64776 8.86579 9.7407 8.77622C10.121 8.40971 11.0085 8.50314 11.3448 8.91094C11.0605 8.52673 11.0741 7.66817 11.4259 7.34546L11.5183 7.26861C11.6225 7.191 11.7274 7.11481 11.8323 7.03996L12.1492 6.81889C12.5841 6.5223 13.5309 6.74076 13.7938 7.1984C13.4739 6.77902 13.6762 5.87153 14.1437 5.63008L14.4898 5.45645Z" fill="currentColor"/>
<path fill-rule="evenodd" clip-rule="evenodd" d="M6.59853 6.5039C11.501 1.57199 19.0129 1.13332 20.9373 3.06934C22.8613 5.0058 22.4254 12.5633 17.5235 17.4955C12.6212 22.4276 5.10862 22.8668 3.18383 20.931C0.986348 18.72 1.69608 11.4362 6.59853 6.5039ZM18.2959 4.01811C17.4821 3.89893 16.4191 3.91182 15.2197 4.12438C12.816 4.55052 10.0928 5.73618 7.96404 7.87773C5.80883 10.0461 4.57492 12.739 4.12591 15.1026C3.90173 16.2833 3.88342 17.3271 4.00898 18.1378C4.13944 18.9795 4.39464 19.4015 4.54933 19.5571C4.60506 19.6129 4.95298 19.8534 5.82525 19.9812C6.63912 20.1004 7.70272 20.0886 8.90235 19.8759C11.3061 19.4497 14.0293 18.2633 16.158 16.1216C18.2866 13.9799 19.4651 11.2401 19.8886 8.82176C20.0999 7.61499 20.1127 6.5456 19.9942 5.72686C19.8672 4.84921 19.6272 4.49923 19.5718 4.44316C19.5167 4.38784 19.169 4.14612 18.2959 4.01811Z" fill="currentColor"/>
</svg>
