<svg width="24" height="24" viewBox="0 0 24 24" fill="none" xmlns="http://www.w3.org/2000/svg">
<path d="M20.1818 12C20.1818 8.32147 17.7544 5.2094 14.4139 4.17951C14.6046 4.55903 14.7612 4.95606 14.8942 5.34961C15.1208 6.02028 15.3004 6.74084 15.4659 7.44389C15.6346 8.16068 15.7872 8.85153 15.9684 9.52219C16.3369 10.886 16.7706 11.9414 17.4448 12.5859C17.9735 13.0914 18.7511 13.4347 20.0815 13.2766C20.1467 12.8606 20.1818 12.4343 20.1818 12ZM4.13246 14.2461C5.10878 17.6724 8.26042 20.1818 12 20.1818C12.4557 20.1818 12.9024 20.1425 13.3379 20.0708C13.4817 18.8743 13.1827 18.1016 12.7049 17.5398C12.1048 16.8341 11.1117 16.3257 9.8267 15.9C8.51223 15.4646 7.18345 15.1962 5.78729 14.8027C5.2332 14.6466 4.66769 14.4663 4.13246 14.2461ZM11.7923 3.82262C7.36959 3.93287 3.81818 7.55078 3.81818 12C3.81818 12.0098 3.81815 12.0195 3.81818 12.0293C4.346 12.4211 5.17294 12.7406 6.2809 13.0529C7.47755 13.3902 9.06316 13.7319 10.3984 14.1742C11.7631 14.6262 13.1555 15.2631 14.0898 16.3617C14.81 17.2086 15.1985 18.2583 15.1898 19.5355C17.1626 18.6994 18.7382 17.1117 19.5595 15.1312C18.1539 15.1526 17.0444 14.7181 16.1886 13.8999C15.1244 12.8825 14.59 11.391 14.2132 9.99627C14.0218 9.28757 13.8567 8.54523 13.6957 7.86115C13.5315 7.1635 13.3689 6.51418 13.1719 5.93111C12.8004 4.83201 12.3672 4.15337 11.7923 3.82262ZM22 12C22 17.5228 17.5228 22 12 22C6.47715 22 2 17.5228 2 12C2 6.47715 6.47715 2 12 2C17.5228 2 22 6.47715 22 12Z" fill="currentColor"/>
</svg>
