<svg width="16" height="16" viewBox="0 0 16 16" fill="none" xmlns="http://www.w3.org/2000/svg">
<path d="M13.5 8C13.5 5.62754 11.9976 3.60653 9.89258 2.83496C9.97267 3.01903 10.0463 3.20393 10.1084 3.3877C10.2663 3.85481 10.391 4.35513 10.5049 4.83887C10.6214 5.3339 10.7248 5.80522 10.8486 6.26367C11.1014 7.19934 11.3934 7.89499 11.8301 8.3125C12.1491 8.61737 12.6203 8.84073 13.4453 8.7627C13.4799 8.51332 13.5 8.2589 13.5 8ZM2.78809 9.75586C3.52098 11.9321 5.57662 13.5 8 13.5C8.27373 13.5 8.54265 13.479 8.80566 13.4404C8.87496 12.7015 8.68003 12.2312 8.38965 11.8896C8.00007 11.4315 7.34475 11.0906 6.4668 10.7998C5.56455 10.5009 4.66886 10.3213 3.69531 10.0469C3.39641 9.96263 3.08886 9.86734 2.78809 9.75586ZM7.82227 2.50391C4.88217 2.59726 2.52515 4.99704 2.50098 7.9541C2.84404 8.19151 3.37392 8.39841 4.10156 8.60352C4.91056 8.83153 6.01901 9.07141 6.93848 9.37598C7.88218 9.68858 8.8669 10.1356 9.53223 10.918C10.012 11.4822 10.2835 12.1696 10.3154 12.9883C11.505 12.4352 12.463 11.4701 13.0068 10.2754C12.102 10.2503 11.369 9.94717 10.793 9.39648C10.0347 8.67143 9.65999 7.61618 9.40039 6.65527C9.26805 6.16536 9.15413 5.65072 9.04395 5.18262C8.93121 4.70369 8.82084 4.26278 8.6875 3.86816C8.44117 3.13931 8.16369 2.71416 7.82227 2.50391ZM15 8C15 11.866 11.866 15 8 15C4.13401 15 1 11.866 1 8C1 4.13401 4.13401 1 8 1C11.866 1 15 4.13401 15 8Z" fill="currentColor"/>
</svg>
