<svg width="16" height="16" viewBox="0 0 16 16" fill="none" xmlns="http://www.w3.org/2000/svg">
<path fill-rule="evenodd" clip-rule="evenodd" d="M8 1C11.8662 1 15 4.13379 15 8C15 11.8662 11.8662 15 8 15C4.13379 15 1 11.8662 1 8C1 4.13379 4.13379 1 8 1ZM10.022 11.8582C9.30245 12.214 8.51822 12.4982 7.7564 12.6872C6.81785 12.92 5.84425 13.0215 4.8784 12.9597C5.78243 13.5302 6.85196 13.8619 8 13.8619C8.74192 13.8619 9.45053 13.7215 10.1039 13.47C10.1111 13.4481 10.1169 13.4273 10.1173 13.4065V13.3862L10.1183 13.3785C10.1594 12.8652 10.1278 12.3562 10.022 11.8582ZM9.62146 5.15763C9.10768 5.88683 8.75974 6.78414 8.65186 7.66781C9.23687 8.11778 9.76941 8.68907 10.1838 9.29216L10.3224 9.50206C10.9609 10.5083 11.3029 11.6378 11.3276 12.822C12.3023 12.1483 13.0637 11.1894 13.4873 10.0634C13.0486 8.77359 12.377 7.58085 11.4422 6.59037C10.9195 6.03662 10.2892 5.52314 9.62146 5.15763ZM2.14966 8.33026C2.21354 9.48121 2.6087 10.5424 3.2425 11.422C3.26428 11.4368 3.2766 11.445 3.28391 11.448L3.54099 11.526C4.82391 11.8909 6.18606 11.8953 7.48968 11.5934C8.00747 11.4734 8.52512 11.3041 9.00426 11.0812L9.18047 10.9964C9.32631 10.923 9.47811 10.8326 9.61087 10.7413C9.2805 9.86385 8.70899 9.15148 7.95475 8.58735C6.29118 9.23103 4.50782 9.3098 2.82173 8.6403C2.59282 8.54937 2.36902 8.444 2.14966 8.33026ZM11.6733 3.43411C11.2296 3.6512 10.8165 3.91902 10.4457 4.24292C10.9825 4.56275 11.487 4.95448 11.9352 5.37717L12.2578 5.70069C12.901 6.38252 13.4322 7.18308 13.86 8.02407C13.86 8.01605 13.8619 8.00803 13.8619 8C13.8619 6.15392 13.0075 4.50879 11.6733 3.43411ZM8 2.1381C7.72368 2.1381 7.45181 2.15782 7.18542 2.19491C6.24898 3.13309 5.58846 4.27392 5.2 5.5447C4.96718 6.30632 4.82637 7.13576 4.80715 7.93645C5.20282 7.96854 5.62446 7.96214 6.01554 7.92779C6.2302 7.90889 6.51479 7.87316 6.79353 7.81224C7.04328 7.75762 7.27623 7.68126 7.45021 7.58693C7.5246 6.87155 7.74387 6.12736 8.03851 5.48982C8.58229 4.31464 9.43454 3.37422 10.5102 2.70523C9.74895 2.34347 8.89897 2.1381 8 2.1381ZM5.12105 2.89395C3.60661 3.74964 2.51086 5.25831 2.21706 7.0381C2.64874 7.31988 3.11999 7.54355 3.61128 7.69959C3.63912 7.05694 3.73303 6.40557 3.87992 5.7912L3.88088 5.79023L3.9425 5.54663V5.5447C4.19432 4.60007 4.58257 3.70196 5.12105 2.89395Z" fill="currentColor"/>
</svg>
