<svg width="24" height="24" viewBox="0 0 24 24" fill="none" xmlns="http://www.w3.org/2000/svg">
<path fill-rule="evenodd" clip-rule="evenodd" d="M12 1C18.0751 1 23 5.92487 23 12C23 18.0751 18.0751 23 12 23C5.92487 23 1 18.0751 1 12C1 5.92487 5.92487 1 12 1ZM15.334 17.9209C14.1497 18.5254 12.841 19.0029 11.5732 19.3174C9.89621 19.7333 8.15128 19.8857 6.43457 19.6973C7.99888 20.8303 9.9208 21.5 12 21.5C13.2272 21.5 14.3988 21.2645 15.4756 20.8408C15.5095 20.7694 15.53 20.6948 15.5312 20.6172V20.5977L15.5322 20.5859L15.5332 20.585C15.6052 19.685 15.5409 18.792 15.334 17.9209ZM14.5283 7.27441C13.644 8.48919 13.0489 10.0086 12.876 11.501C12.8814 11.5185 12.8915 11.5427 12.9004 11.5615C13.8359 12.273 14.6887 13.1851 15.3506 14.1484C16.5487 15.8907 17.1656 17.8848 17.1504 19.9805C18.8625 18.8732 20.197 17.2326 20.9141 15.291C20.209 13.1966 19.121 11.2564 17.6006 9.64551C16.7312 8.72448 15.6765 7.86731 14.5557 7.27246C14.5482 7.27241 14.5388 7.27364 14.5283 7.27441ZM2.50684 12.2637C2.56084 14.2448 3.2205 16.073 4.30859 17.5723C4.35773 17.6067 4.39914 17.6322 4.43359 17.6445L4.84668 17.7705C6.91981 18.3605 9.11981 18.3676 11.2217 17.8809C12.056 17.6876 12.8918 17.4144 13.667 17.0537L13.9502 16.917C14.2242 16.7791 14.5195 16.6094 14.7607 16.4316C14.2208 14.9215 13.2475 13.7071 11.958 12.7598C9.31416 13.804 6.47925 13.937 3.80469 12.875C3.36124 12.6989 2.92689 12.4937 2.50684 12.2637ZM17.875 4.53711C17.0569 4.9272 16.3005 5.42404 15.6328 6.03809C16.5464 6.5595 17.4054 7.21901 18.1641 7.93457C19.5556 9.24805 20.6525 10.9134 21.4736 12.665C21.4888 12.4453 21.5 12.2236 21.5 12C21.5 8.97194 20.0818 6.27672 17.875 4.53711ZM12 2.5C11.5343 2.5 11.0767 2.53488 10.6289 2.59961C9.09695 4.12141 8.01805 5.97555 7.38672 8.04102C6.99711 9.31554 6.76721 10.708 6.75098 12.0459C7.43456 12.1132 8.17223 12.1006 8.85059 12.041C9.19703 12.0105 9.65816 11.9536 10.1113 11.8545C10.5473 11.7591 10.9675 11.6253 11.2715 11.4443C11.379 10.2971 11.729 9.09346 12.2041 8.06543C13.0987 6.13202 14.5255 4.60424 16.332 3.5459C15.0328 2.8788 13.561 2.5 12 2.5ZM7.91699 3.41992C5.13297 4.74713 3.09575 7.38914 2.61035 10.543C3.38965 11.0641 4.25135 11.4698 5.15137 11.7334C5.18244 10.6538 5.33924 9.55254 5.58691 8.5166L5.68555 8.12793C6.13902 6.42661 6.87327 4.82443 7.91699 3.41992Z" fill="currentColor"/>
</svg>
